<svg width="281" height="450" viewBox="0 0 281 450" fill="none" xmlns="http://www.w3.org/2000/svg">
<g clip-path="url(#clip0_466_56079)">
<mask id="mask0_466_56079" style="mask-type:luminance" maskUnits="userSpaceOnUse" x="0" y="346" width="281" height="113">
<path d="M280.551 346.266H0.54834V458.819H280.551V346.266Z" fill="white"/>
</mask>
<g mask="url(#mask0_466_56079)">
<path d="M261.082 135.239C261.863 135.229 262.645 135.22 263.45 135.211C265.1 135.197 266.75 135.188 268.4 135.184C270.918 135.172 273.434 135.123 275.951 135.073C277.557 135.063 279.163 135.056 280.769 135.051C281.519 135.031 282.268 135.012 283.039 134.992C286.967 135.026 288.795 135.457 291.934 137.888C293.825 140.388 294.685 141.683 295.137 144.711C295.256 145.449 295.375 146.186 295.498 146.946C295.65 148.079 295.65 148.079 295.805 149.235C295.925 149.998 296.046 150.761 296.17 151.547C296.637 154.592 296.992 157.526 296.992 160.61C298.408 161.091 299.825 161.569 301.242 162.047C302.031 162.314 302.82 162.581 303.633 162.856C304.411 163.105 305.19 163.353 305.992 163.61C306.635 163.837 307.279 164.064 307.942 164.299C310.353 164.909 310.353 164.909 313.156 162.336C314.321 161.315 315.474 160.28 316.617 159.235C323.858 152.791 323.858 152.791 328.117 152.11C332.19 152.635 332.815 152.973 335.676 155.59C336.372 156.225 337.068 156.861 337.785 157.515C341.557 161.095 345.262 164.735 348.93 168.422C350.079 169.566 350.079 169.566 351.252 170.733C351.98 171.462 352.707 172.191 353.457 172.942C354.441 173.927 354.441 173.927 355.445 174.933C357.628 177.299 357.978 178.504 358.418 181.754C357.842 186.971 355.439 189.355 352.18 193.297C347.919 198.704 347.919 198.704 347.375 205.317C348.684 208.331 350.078 210.943 351.992 213.61C353.854 213.774 353.854 213.774 355.754 213.942C357.396 214.101 359.038 214.261 360.68 214.422C361.496 214.492 362.313 214.563 363.154 214.635C367.754 215.101 371.301 215.582 374.992 218.61C377.418 222.198 377.298 225.86 377.293 230.043C377.297 230.758 377.301 231.473 377.306 232.21C377.312 233.718 377.312 235.227 377.308 236.736C377.305 239.036 377.328 241.335 377.353 243.635C377.356 245.104 377.356 246.574 377.355 248.043C377.365 248.727 377.374 249.41 377.383 250.114C377.341 254.453 376.655 257.168 373.992 260.61C370.303 263.069 366.776 263.534 362.492 264.235C361.72 264.369 360.948 264.503 360.152 264.641C357.066 265.165 354.128 265.61 350.992 265.61C350.868 266.455 350.745 267.301 350.617 268.172C349.992 271.61 349.992 271.61 348.621 274.887C347.664 278.365 347.664 278.365 348.845 280.374C350.248 282.215 351.728 283.914 353.305 285.61C357.387 290.098 360.068 293.194 359.992 299.61C358.84 301.762 358.84 301.762 357.055 303.547C356.406 304.216 355.758 304.885 355.09 305.574C354.397 306.246 353.705 306.918 352.992 307.61C352.331 308.271 351.669 308.932 350.988 309.614C349.657 310.945 348.319 312.27 346.976 313.59C344.386 316.226 342.002 319.013 339.633 321.848C336.727 324.968 335.04 326.434 330.726 327.156C325.67 326.416 323.118 324.022 319.242 320.86C313.974 316.709 313.974 316.709 307.578 315.77C304.841 316.835 302.484 318.068 299.992 319.61C299.332 319.61 298.672 319.61 297.992 319.61C297.943 320.683 297.894 321.757 297.844 322.864C297.769 324.3 297.693 325.736 297.617 327.172C297.586 327.877 297.555 328.581 297.523 329.307C297.263 334.021 296.606 338.157 294.992 342.61C291.428 345.304 288.614 345.743 284.277 345.676C283.071 345.662 283.071 345.662 281.84 345.647C281.23 345.635 280.62 345.622 279.992 345.61C280.001 346.562 280.01 347.515 280.019 348.497C280.1 357.514 280.16 366.532 280.199 375.549C280.22 380.185 280.248 384.82 280.294 389.455C280.338 393.935 280.361 398.415 280.372 402.896C280.379 404.598 280.393 406.3 280.415 408.001C280.576 421.118 279.664 431.792 270.152 441.731C263.478 447.536 256.459 448.759 247.866 448.77C246.921 448.775 245.975 448.78 245.001 448.786C241.819 448.801 238.636 448.81 235.453 448.818C233.177 448.828 230.9 448.838 228.624 448.848C221.133 448.879 213.643 448.9 206.152 448.918C204.878 448.922 203.603 448.925 202.29 448.928C190.27 448.959 178.25 448.986 166.229 449.003C163.445 449.007 160.661 449.011 157.877 449.015C157.185 449.016 156.493 449.017 155.78 449.018C144.585 449.035 133.39 449.076 122.195 449.127C110.691 449.179 99.1872 449.207 87.6834 449.215C81.2285 449.22 74.7741 449.235 68.3194 449.275C62.2413 449.311 56.1638 449.32 50.0856 449.307C47.8605 449.307 45.6353 449.317 43.4102 449.338C19.826 449.553 19.826 449.553 10.0244 440.866C1.27518 431.911 0.833563 420.401 0.788513 408.606C0.782513 407.45 0.77714 406.294 0.77124 405.103C0.76224 402.664 0.755234 400.226 0.751434 397.788C0.741434 394.057 0.710638 390.327 0.679138 386.596C0.672138 384.224 0.667313 381.852 0.663513 379.481C0.651113 378.366 0.638829 377.251 0.626129 376.103C0.629129 375.062 0.632132 374.02 0.635132 372.947C0.631132 372.035 0.628123 371.123 0.624023 370.183C1.07479 367.027 2.12546 365.177 3.99152 362.61C7.12578 360.52 7.81263 360.36 11.3744 360.364C12.2756 360.36 13.1768 360.356 14.1053 360.351C15.0965 360.357 16.0877 360.363 17.1089 360.369C18.161 360.367 19.2131 360.366 20.297 360.364C23.8394 360.361 27.3816 360.372 30.9239 360.383C33.4564 360.383 35.9887 360.383 38.5211 360.382C43.9821 360.381 49.4431 360.387 54.9041 360.398C62.7998 360.414 70.6954 360.42 78.5911 360.422C91.4008 360.427 104.21 360.44 117.02 360.459C129.464 360.477 141.909 360.491 154.354 360.5C155.12 360.5 155.887 360.501 156.677 360.501C160.525 360.504 164.372 360.506 168.219 360.509C200.143 360.53 232.067 360.565 263.991 360.61C263.991 355.66 263.991 350.71 263.991 345.61C261.681 345.61 259.371 345.61 256.991 345.61C254.241 344.985 254.241 344.985 251.991 343.61C249.431 339.468 248.649 335.964 248.169 331.238C247.567 324.169 247.567 324.169 243.753 318.543C240.026 316.959 237.48 316.212 233.507 317.274C229.452 319.427 226.301 322.556 222.905 325.614C219.387 328.024 217.253 328.643 212.991 328.61C208.825 326.166 205.462 323.328 202.065 319.914C201.187 319.034 200.308 318.153 199.403 317.246C198.504 316.335 197.605 315.424 196.679 314.485C195.301 313.106 195.301 313.106 193.895 311.699C186.121 303.874 186.121 303.874 185.612 298.93C185.674 293.92 187.93 291.206 191.054 287.485C194.848 283.125 194.848 283.125 195.987 277.617C195.658 276.625 195.33 275.632 194.991 274.61C194.679 273.364 194.367 272.119 194.046 270.836C192.394 267.526 192.394 267.526 189.953 266.855C187.336 266.418 184.763 266.165 182.116 265.985C180.325 265.846 178.536 265.688 176.749 265.508C175.956 265.453 175.164 265.398 174.347 265.342C170.765 264.229 169.246 262.583 166.991 259.61C166.503 256.679 166.31 254.343 166.362 251.422C166.36 250.642 166.357 249.862 166.355 249.058C166.356 247.414 166.369 245.77 166.394 244.126C166.428 241.617 166.415 239.111 166.395 236.602C166.402 235 166.412 233.399 166.425 231.797C166.42 231.051 166.415 230.305 166.41 229.537C166.491 225.934 166.896 223.764 168.794 220.669C171.829 217.824 174.949 217.367 178.929 216.797C179.983 216.616 179.983 216.616 181.059 216.432C184.729 215.83 188.274 215.471 191.991 215.61C192.299 214.579 192.299 214.579 192.612 213.528C192.882 212.627 193.151 211.725 193.429 210.797C193.695 209.904 193.962 209.01 194.237 208.09C194.795 206.255 195.385 204.429 195.991 202.61C194.273 200.127 192.543 197.857 190.616 195.547C189.586 194.286 188.557 193.025 187.53 191.762C187.068 191.205 186.606 190.648 186.13 190.074C183.471 186.656 183.548 183.864 183.991 179.61C185.692 177.233 187.178 175.483 189.249 173.492C189.79 172.95 190.33 172.407 190.887 171.848C192.031 170.709 193.183 169.578 194.343 168.455C196.111 166.74 197.845 164.994 199.577 163.242C200.695 162.136 201.815 161.032 202.936 159.93C203.452 159.41 203.968 158.89 204.5 158.355C207.859 155.145 210.315 153.732 214.991 153.61C218.529 155.243 221.368 157.144 224.483 159.473C225.786 160.438 225.786 160.438 227.116 161.422C227.923 162.047 228.73 162.673 229.561 163.317C231.924 164.858 231.924 164.858 234.632 164.375C236.315 163.829 237.976 163.211 239.616 162.547C241.991 161.61 241.991 161.61 244.991 161.61C245.112 160.296 245.233 158.983 245.358 157.629C245.527 155.893 245.696 154.158 245.866 152.422C245.945 151.558 246.023 150.693 246.104 149.803C246.977 141.044 246.977 141.044 248.991 137.61C252.677 135.018 256.748 135.269 261.082 135.239ZM261.992 152.61C261.615 155.381 261.285 158.141 260.992 160.922C260.828 162.46 260.661 163.998 260.492 165.535C260.42 166.22 260.348 166.905 260.273 167.611C259.982 169.683 259.638 171.617 258.992 173.61C257.164 174.446 257.164 174.446 254.742 174.985C249.151 176.42 244.294 178.779 239.168 181.403C235.374 182.844 233.023 183.161 228.992 182.61C226.277 181.229 223.948 179.484 221.555 177.61C220.918 177.133 220.282 176.656 219.627 176.164C218.071 174.994 216.53 173.804 214.992 172.61C213.924 173.478 212.863 174.355 211.805 175.235C211.213 175.722 210.621 176.209 210.012 176.711C207.407 179.16 205.244 181.833 202.992 184.61C203.702 185.467 204.413 186.324 205.144 187.207C206.074 188.362 207.002 189.517 207.93 190.672C208.632 191.514 208.632 191.514 209.349 192.373C212.51 196.353 214.021 199.355 213.992 204.61C213.023 207.297 212.06 209.554 210.742 212.047C210.083 213.361 209.427 214.676 208.773 215.992C208.46 216.615 208.147 217.238 207.824 217.88C206.799 220.011 205.997 222.183 205.242 224.422C203.992 227.61 203.992 227.61 200.992 229.61C198.999 230.112 198.999 230.112 196.762 230.461C195.959 230.59 195.157 230.719 194.33 230.852C193.497 230.978 192.663 231.104 191.805 231.235C190.537 231.436 190.537 231.436 189.244 231.641C187.161 231.97 185.077 232.291 182.992 232.61C182.992 238.22 182.992 243.83 182.992 249.61C184.329 249.803 185.666 249.996 187.043 250.196C188.797 250.458 190.551 250.721 192.305 250.985C193.186 251.111 194.067 251.237 194.974 251.367C195.822 251.496 196.67 251.625 197.543 251.758C198.323 251.873 199.103 251.988 199.907 252.107C201.992 252.61 201.992 252.61 204.992 254.61C206.101 257.212 207.079 259.753 207.992 262.422C209.639 267.16 211.339 271.324 213.992 275.61C215.058 280.938 213.48 283.83 210.68 288.235C209.454 290.029 208.225 291.82 206.992 293.61C206.002 295.26 205.012 296.91 203.992 298.61C207.622 302.24 211.252 305.87 214.992 309.61C219.547 306.573 223.474 303.574 227.551 300C230.921 298.081 233.16 298.207 236.992 298.61C240.168 299.817 240.168 299.817 243.305 301.422C248.734 304.181 254.147 305.98 259.992 307.61C260.166 308.556 260.166 308.556 260.343 309.521C260.868 312.364 261.399 315.206 261.93 318.047C262.203 319.537 262.203 319.537 262.482 321.057C262.66 322.001 262.837 322.945 263.019 323.918C263.182 324.793 263.344 325.667 263.511 326.568C263.799 328.592 263.799 328.592 264.992 329.61C267.689 329.683 270.359 329.702 273.055 329.672C274.192 329.665 274.192 329.665 275.353 329.658C277.233 329.647 279.113 329.629 280.992 329.61C281.105 328.724 281.105 328.724 281.22 327.821C281.568 325.145 281.936 322.471 282.305 319.797C282.423 318.868 282.54 317.94 282.662 316.983C282.788 316.09 282.913 315.197 283.043 314.278C283.208 313.044 283.208 313.044 283.376 311.786C284.096 309.241 284.938 308.242 286.992 306.61C289.523 305.617 289.523 305.617 292.492 304.735C296.837 303.39 300.753 301.797 304.805 299.735C308.203 298.178 309.695 297.594 313.492 297.797C318.735 300.512 323.339 303.992 327.992 307.61C331.34 306.143 333.685 304.273 336.305 301.735C337.023 301.057 337.741 300.379 338.48 299.68C340.174 297.782 340.174 297.782 340.008 295.719C338.015 291.58 334.822 288.214 331.926 284.68C329.71 281.161 329.379 279.683 329.992 275.61C331.199 272.496 331.199 272.496 332.805 269.297C335.063 264.702 336.814 260.425 337.863 255.414C340.019 251.968 344.21 251.073 347.97 250.096C349.951 249.662 351.934 249.281 353.93 248.922C354.955 248.728 354.955 248.728 356.002 248.53C357.664 248.216 359.328 247.912 360.992 247.61C361.019 244.964 361.039 242.318 361.055 239.672C361.063 238.917 361.071 238.163 361.08 237.385C361.089 235.46 361.044 233.534 360.992 231.61C358.666 229.284 352.636 229.764 349.338 229.448C348.588 229.368 347.839 229.289 347.066 229.207C346.381 229.14 345.696 229.073 344.991 229.004C342.641 228.54 341.003 227.922 338.992 226.61C337.927 224.778 337.927 224.778 337.14 222.582C336.847 221.79 336.553 220.998 336.25 220.182C335.813 218.94 335.813 218.94 335.367 217.672C334.774 216.037 334.178 214.403 333.578 212.77C333.321 212.044 333.063 211.318 332.798 210.571C331.96 208.348 331.96 208.348 329.992 205.61C328.864 199.404 330.388 196.549 333.93 191.36C335.026 189.867 335.026 189.867 336.144 188.344C338.444 185.225 338.444 185.225 338.992 181.61C336.896 178.904 336.896 178.904 334.055 176.36C333.117 175.468 332.18 174.576 331.215 173.656C330.481 172.981 329.748 172.306 328.992 171.61C324.421 173.664 320.697 176.793 316.746 179.832C313.846 181.704 312.428 182.549 308.992 182.61C306.111 181.745 303.415 180.541 300.68 179.297C295.156 176.834 289.906 174.926 283.992 173.61C283.818 172.717 283.818 172.717 283.641 171.805C283.115 169.115 282.585 166.425 282.055 163.735C281.781 162.329 281.781 162.329 281.502 160.895C281.325 159.999 281.147 159.103 280.965 158.18C280.802 157.353 280.64 156.525 280.473 155.673C280.065 153.562 280.065 153.562 278.992 151.61C276.346 151.583 273.701 151.563 271.055 151.547C269.922 151.535 269.922 151.535 268.767 151.522C265.08 151.144 265.08 151.144 261.992 152.61ZM16.9917 376.61C13.9216 400.007 13.9216 400.007 21.4292 428.422C26.3579 432.63 29.6651 432.899 35.9298 432.877C36.8551 432.882 37.7804 432.886 38.7338 432.891C41.8475 432.903 44.9611 432.902 48.0749 432.9C50.302 432.906 52.5292 432.913 54.7563 432.92C60.8163 432.938 66.8762 432.943 72.9362 432.944C77.9909 432.946 83.0456 432.953 88.1004 432.96C99.3431 432.976 110.586 432.982 121.829 432.98C122.841 432.98 122.841 432.98 123.874 432.98C124.887 432.98 124.887 432.98 125.921 432.98C136.868 432.979 147.815 432.998 158.761 433.027C170.001 433.055 181.24 433.069 192.479 433.067C198.789 433.067 205.1 433.073 211.41 433.094C217.345 433.113 223.28 433.113 229.215 433.099C231.394 433.097 233.574 433.101 235.753 433.113C238.727 433.129 241.699 433.12 244.673 433.104C245.537 433.114 246.4 433.125 247.29 433.135C252.646 433.074 255.863 432.335 259.992 428.61C268.617 413.516 263.992 393.994 263.992 376.61C182.482 376.61 100.972 376.61 16.9917 376.61Z" fill="black"/>
</g>
<path d="M33.4141 0.143005C34.3652 0.138005 35.3163 0.132209 36.2962 0.126709C39.4736 0.112409 42.6505 0.119708 45.8278 0.126648C48.1098 0.120648 50.3918 0.113935 52.6737 0.105835C58.8659 0.087835 65.058 0.0890418 71.2502 0.0947418C76.4216 0.0977418 81.5931 0.0917391 86.7646 0.0857391C99.6637 0.0709391 112.562 0.0745489 125.461 0.0866089C136.652 0.0966089 147.842 0.0836076 159.032 0.0597076C170.535 0.0353076 182.038 0.0261029 193.54 0.0323029C199.993 0.0353029 206.446 0.033248 212.899 0.016098C218.968 0.000598023 225.037 0.00460181 231.106 0.0231018C233.33 0.0271018 235.555 0.0236873 237.78 0.0131073C240.822 -9.27001e-05 243.864 0.0110985 246.906 0.0290985C248.22 0.0146985 248.22 0.0147 249.56 0C258.436 0.10557 265.513 3.47482 271.994 9.46391C278.316 16.7495 279.933 24.6405 279.964 33.9832C279.971 34.8341 279.977 35.685 279.984 36.5616C280.004 39.3728 280.015 42.1839 280.025 44.9952C280.029 45.9561 280.033 46.9171 280.038 47.9072C280.058 52.9898 280.073 58.0724 280.082 63.1551C280.093 68.4055 280.128 73.6554 280.167 78.9056C280.193 82.9436 280.202 86.9816 280.205 91.0197C280.21 92.9554 280.222 94.8911 280.24 96.8267C280.265 99.5343 280.264 102.24 280.257 104.948C280.276 106.146 280.276 106.146 280.296 107.368C280.26 111.142 279.927 113.31 277.883 116.527C275.787 118.53 275.787 118.53 273.787 119.159C273.127 119.137 272.467 119.115 271.787 119.093C271.127 119.094 270.467 119.095 269.787 119.096C267.787 118.53 267.787 118.53 263.787 114.53C263.787 100.67 263.787 86.8103 263.787 72.5303C182.277 72.5303 100.767 72.5303 16.7873 72.5303C16.8337 93.9958 16.8801 115.461 16.9279 137.577C16.9484 151.139 16.9678 164.702 16.9826 178.264C16.9906 185.386 16.9985 192.508 17.007 199.63C17.009 200.969 17.009 200.969 17.01 202.335C17.0274 216.756 17.059 231.178 17.0957 245.599C17.1331 260.394 17.1553 275.188 17.1635 289.982C17.1685 299.115 17.1863 308.248 17.2188 317.381C17.2399 323.639 17.2463 329.897 17.2411 336.155C17.2381 339.768 17.2431 343.382 17.2639 346.995C17.2869 350.909 17.2791 354.822 17.2679 358.736C17.2796 359.884 17.2912 361.032 17.3032 362.214C17.2952 363.26 17.2873 364.306 17.2791 365.384C17.2801 366.288 17.2821 367.191 17.2841 368.122C16.6209 371.336 15.344 372.532 12.7873 374.53C9.2873 375.03 9.28729 375.03 5.78729 374.53C2.88012 372.311 1.94747 371.011 0.787292 367.53C0.693592 365.652 0.659981 363.772 0.658691 361.892C0.653691 360.12 0.653682 360.12 0.648682 358.312C0.650682 357.008 0.651687 355.704 0.653687 354.36C0.651687 352.966 0.649667 351.571 0.646667 350.177C0.640667 346.336 0.640663 342.495 0.641663 338.654C0.641863 334.514 0.636692 330.375 0.631592 326.236C0.623592 318.122 0.620595 310.008 0.619995 301.894C0.619515 295.298 0.616953 288.702 0.613953 282.106C0.604953 263.41 0.600557 244.714 0.601257 226.018C0.601317 224.505 0.601319 224.505 0.601379 222.962C0.601419 221.952 0.601461 220.942 0.601501 219.902C0.601911 203.545 0.592486 187.187 0.578186 170.83C0.563786 154.039 0.5569 137.248 0.5578 120.457C0.55814 111.028 0.555817 101.6 0.544617 92.1716C0.535617 84.1417 0.533312 76.1117 0.539612 68.0818C0.542612 63.9855 0.542607 59.8893 0.534607 55.7931C0.526607 52.04 0.528621 48.2871 0.536621 44.534C0.538621 42.5396 0.531638 40.5452 0.523438 38.5508C0.565837 27.5029 1.88214 18.492 8.78625 9.53029C16.0738 2.49403 23.5069 0.0749892 33.413 0.142639L33.4141 0.143005ZM18.9748 22.9681C14.2691 33.1226 16.7873 46.4842 16.7873 56.5306C98.2973 56.5306 179.807 56.5306 263.787 56.5306C266.185 30.3834 266.185 30.3834 259.787 20.5306C254.886 16.113 250.766 15.9577 244.488 16.0227C243.56 16.0167 242.632 16.0102 241.676 16.0038C238.572 15.9879 235.468 16.0008 232.363 16.0128C230.136 16.0078 227.908 16.0002 225.68 15.9915C219.633 15.9733 213.586 15.9804 207.538 15.9925C201.211 16.0027 194.884 15.9933 188.556 15.9875C177.25 15.9795 165.943 15.9925 154.637 16.0125C144.39 16.0304 134.142 16.0273 123.895 16.0085C111.989 15.987 100.084 15.9791 88.1783 15.9909C81.8781 15.9969 75.578 15.9979 69.2778 15.9849C63.3548 15.9733 57.4322 15.9809 51.5093 16.0044C49.3349 16.0094 47.1604 16.0084 44.986 15.9994C42.019 15.9885 39.0532 16.0024 36.0863 16.0221C35.2246 16.0131 34.3629 16.0043 33.4751 15.9951C27.1014 16.0783 22.9302 17.6488 18.9748 22.9681Z" fill="black"/>
<path d="M166.787 149.53C169.099 150.593 169.099 150.593 170.787 152.53C171.949 157.668 171.726 160.866 169.767 165.725C169.062 167.509 169.062 167.509 168.343 169.33C167.813 170.623 167.282 171.916 166.752 173.21C166.204 174.579 165.658 175.948 165.113 177.319C163.953 180.229 162.783 183.135 161.605 186.038C159.8 190.489 158.022 194.95 156.248 199.414C152.94 207.732 149.61 216.042 146.275 224.35C143.799 230.516 141.327 236.683 138.855 242.851C138.009 244.961 137.162 247.07 136.315 249.18C136.051 249.838 135.787 250.496 135.515 251.174C135.001 252.455 134.486 253.736 133.97 255.016C132.737 258.086 131.557 261.165 130.432 264.276C130.009 265.442 129.586 266.609 129.15 267.811C128.788 268.843 128.426 269.875 128.054 270.938C126.649 273.812 125.553 274.967 122.787 276.53C118.907 277.015 116.711 277.098 113.349 275.03C111.19 271.575 111.359 268.463 111.787 264.53C112.565 261.549 113.682 258.754 114.857 255.909C115.347 254.675 115.347 254.675 115.848 253.416C116.928 250.708 118.027 248.008 119.127 245.307C119.891 243.401 120.654 241.495 121.416 239.588C123.428 234.563 125.456 229.545 127.487 224.528C129.519 219.503 131.536 214.472 133.555 209.442C135.884 203.637 138.215 197.832 140.56 192.033C143.69 184.291 146.81 176.551 149.748 168.734C150.16 167.645 150.571 166.556 150.995 165.434C151.699 163.551 152.392 161.664 153.067 159.77C155.6 153.002 158.826 148.345 166.787 149.53Z" fill="black"/>
<path d="M97.7871 173.531C101.059 175.898 102.494 177.431 103.537 181.344C101.53 189.873 91.3684 197.069 85.3496 203.031C84.4273 203.949 83.505 204.867 82.5547 205.812C80.3011 208.054 78.0452 210.294 75.7871 212.531C81.4637 219.404 87.774 225.548 94.1504 231.768C94.9741 232.58 95.7978 233.393 96.6465 234.23C97.3938 234.961 98.1411 235.691 98.9111 236.444C101.924 239.796 102.839 241.542 102.6 246.094C101.787 249.531 101.787 249.531 100.725 251.469C97.4087 253.287 94.3703 253.424 90.7871 252.531C87.7363 250.565 85.31 248.125 82.7871 245.531C81.8899 244.669 81.8899 244.669 80.9746 243.789C77.4118 240.338 74.1727 236.68 70.959 232.906C69.1874 230.969 67.3855 229.156 65.4902 227.344C64.6087 226.494 64.6087 226.494 63.7095 225.627C62.5309 224.499 61.342 223.381 60.1421 222.275C57.4677 219.704 55.9507 218.003 54.7168 214.445C54.8775 207.784 60.6549 203.297 65.0527 198.824C65.7643 198.099 66.476 197.373 67.2092 196.626C68.7125 195.099 70.2189 193.576 71.728 192.055C74.0312 189.725 76.3092 187.372 78.5879 185.018C80.0538 183.535 81.5212 182.054 82.9902 180.574C83.6665 179.868 84.3428 179.162 85.0396 178.434C89.1813 174.33 91.6629 172.433 97.7871 173.531Z" fill="black"/>
<path d="M189.912 172.719C198.607 174.542 204.687 183.332 210.377 189.724C213.003 192.658 215.706 195.45 218.56 198.164C219.199 198.777 219.839 199.389 220.497 200.021C221.746 201.209 223.006 202.386 224.28 203.547C227.222 206.364 228.655 208.123 229.935 212.074C229.631 219.162 223.692 223.911 218.904 228.644C218.249 229.299 217.593 229.954 216.918 230.629C215.54 232.004 214.16 233.376 212.778 234.746C210.656 236.849 208.543 238.96 206.432 241.072C205.09 242.409 203.747 243.746 202.404 245.082C201.771 245.714 201.138 246.346 200.485 246.998C199.897 247.579 199.31 248.16 198.704 248.759C198.188 249.271 197.672 249.784 197.14 250.312C194.253 252.914 191.485 252.811 187.693 252.742C185.787 252.531 185.787 252.531 183.849 251.406C182.319 248.704 181.911 246.637 181.787 243.531C183.888 239.247 186.959 236.096 190.33 232.793C190.858 232.267 191.387 231.741 191.931 231.2C193.608 229.535 195.291 227.877 196.975 226.219C198.118 225.086 199.26 223.952 200.402 222.818C203.192 220.05 205.988 217.289 208.787 214.531C207.194 210.606 204.638 208.183 201.631 205.25C201.128 204.754 200.625 204.259 200.107 203.749C198.505 202.171 196.897 200.6 195.287 199.031C193.167 196.964 191.053 194.89 188.943 192.812C188.003 191.895 187.063 190.978 186.094 190.033C184.085 187.855 182.783 186.292 181.787 183.531C181.933 180.03 182.429 178.055 184.412 175.156C186.787 173.531 186.787 173.531 189.912 172.719Z" fill="black"/>
<path d="M112.279 394.381C112.985 394.377 113.691 394.373 114.419 394.37C116.748 394.362 119.077 394.375 121.406 394.39C123.027 394.39 124.649 394.39 126.27 394.388C129.666 394.388 133.062 394.399 136.458 394.417C140.809 394.44 145.16 394.44 149.512 394.433C152.859 394.43 156.207 394.437 159.554 394.446C161.158 394.45 162.763 394.451 164.367 394.45C166.61 394.45 168.852 394.462 171.095 394.478C173.009 394.485 173.009 394.485 174.962 394.492C178.001 394.738 179.677 395.086 182.187 396.753C184.269 399.429 184.183 400.871 184.062 404.316C183.187 407.753 183.187 407.753 181.587 409.443C178.268 411.255 175.687 411.142 171.912 411.157C170.823 411.167 170.823 411.167 169.713 411.178C167.319 411.196 164.925 411.192 162.531 411.187C160.865 411.191 159.198 411.197 157.532 411.203C154.042 411.211 150.552 411.209 147.062 411.199C142.589 411.188 138.117 411.208 133.645 411.237C130.205 411.255 126.765 411.255 123.324 411.249C121.675 411.249 120.026 411.255 118.377 411.268C116.072 411.283 113.768 411.272 111.462 411.255C110.151 411.255 108.84 411.254 107.488 411.254C103.657 410.673 102.508 409.785 100.187 406.753C98.9948 404.112 99.1186 403.009 99.8748 400.191C102.828 394.705 106.328 394.378 112.279 394.381Z" fill="black"/>
<path d="M130.846 27.9645C131.827 27.9585 132.808 27.9521 133.819 27.9457C135.893 27.9387 137.967 27.9417 140.04 27.9547C143.21 27.9686 146.377 27.9345 149.547 27.8964C151.563 27.8954 153.579 27.8973 155.596 27.9024C156.542 27.8892 157.488 27.8759 158.462 27.8623C163.051 27.9271 165.136 28.0389 168.893 30.8792C170.787 33.5313 170.787 33.5313 171.287 36.5938C170.74 39.8101 170.079 41.2389 167.787 43.5313C165.059 44.4405 163.391 44.671 160.579 44.7083C159.312 44.7276 159.312 44.7276 158.019 44.7472C156.655 44.7583 156.655 44.7583 155.264 44.7696C154.325 44.7776 153.387 44.7858 152.42 44.7941C150.435 44.8079 148.449 44.8186 146.464 44.8265C143.43 44.8437 140.398 44.8876 137.365 44.9317C135.435 44.9419 133.506 44.9504 131.576 44.9571C130.671 44.9746 129.765 44.9921 128.833 45.0102C124.612 44.9957 122.377 44.8966 118.714 42.6297C116.636 40.3671 116.124 39.5512 116.224 36.5313C116.223 35.8713 116.222 35.2113 116.221 34.5313C118.282 27.2518 124.573 27.9317 130.846 27.9645Z" fill="black"/>
<path d="M246.882 3.8793C245.931 3.8743 244.98 3.86851 244 3.86301C240.823 3.84871 237.646 3.85601 234.469 3.86296C232.187 3.85696 229.905 3.85026 227.623 3.84216C221.43 3.82426 215.238 3.82535 209.046 3.83105C203.875 3.83405 198.703 3.82805 193.532 3.82205C180.633 3.80725 167.734 3.81085 154.835 3.82292C143.644 3.83292 132.454 3.81992 121.264 3.79602C109.761 3.77162 98.258 3.76242 86.756 3.76872C80.303 3.77172 73.85 3.76968 67.397 3.75243C61.328 3.73693 55.259 3.74093 49.19 3.75943C46.966 3.76343 44.741 3.76 42.516 3.74942C39.474 3.73622 36.432 3.74743 33.39 3.76543C32.076 3.75103 32.076 3.75103 30.736 3.73633C21.86 3.84189 14.783 7.21114 8.302 13.2002C1.98 20.4858 0.363031 28.3768 0.332031 37.7195C0.325031 38.5704 0.319012 39.4213 0.312012 40.2979C0.292012 43.1091 0.280996 45.9202 0.270996 48.7315C0.266996 49.6924 0.262996 50.6534 0.257996 51.6435C0.237996 56.7261 0.222989 61.8087 0.213989 66.8914C0.202989 72.1418 0.168028 77.3917 0.129028 82.6419C0.103028 86.6799 0.0940034 90.7179 0.0910034 94.756C0.0860034 96.6917 0.0740303 98.6274 0.0560303 100.563C0.0310303 103.271 0.0320015 105.977 0.0390015 108.685C0.0200015 109.883 0.02 109.883 0 111.105C0.036 114.879 0.369025 117.047 2.41302 120.264C4.50902 122.267 4.50903 122.267 6.50903 122.896C7.16903 122.874 7.82903 122.852 8.50903 122.83C9.16903 122.831 9.82903 122.832 10.509 122.833C12.509 122.267 12.509 122.267 16.509 118.267C16.509 104.407 16.509 90.5466 16.509 76.2666C98.019 76.2666 179.529 76.2666 263.509 76.2666C263.463 97.7321 263.416 119.198 263.368 141.314C263.348 154.876 263.329 168.439 263.314 182.001C263.306 189.123 263.298 196.245 263.289 203.367C263.287 204.706 263.287 204.706 263.286 206.072C263.269 220.493 263.237 234.915 263.201 249.336C263.163 264.131 263.141 278.925 263.133 293.719C263.128 302.852 263.11 311.985 263.078 321.118C263.056 327.376 263.05 333.634 263.055 339.892C263.058 343.505 263.053 347.119 263.032 350.732C263.009 354.646 263.017 358.559 263.028 362.473C263.017 363.621 263.005 364.769 262.993 365.951C263.001 366.997 263.009 368.043 263.017 369.121C263.015 370.025 263.014 370.928 263.012 371.859C263.675 375.073 264.952 376.269 267.509 378.267C271.009 378.767 271.009 378.767 274.509 378.267C277.416 376.048 278.349 374.748 279.509 371.267C279.603 369.389 279.636 367.509 279.638 365.629C279.643 363.857 279.643 363.857 279.648 362.049C279.646 360.745 279.645 359.441 279.643 358.097C279.645 356.703 279.647 355.308 279.65 353.914C279.656 350.073 279.656 346.232 279.655 342.391C279.654 338.251 279.66 334.112 279.665 329.973C279.673 321.859 279.676 313.745 279.676 305.631C279.677 299.035 279.679 292.439 279.682 285.843C279.691 267.147 279.696 248.451 279.695 229.755C279.695 228.242 279.695 228.242 279.695 226.699C279.695 225.689 279.695 224.679 279.695 223.639C279.694 207.282 279.704 190.924 279.718 174.567C279.733 157.776 279.739 140.985 279.738 124.194C279.738 114.765 279.741 105.337 279.752 95.9079C279.761 87.878 279.763 79.848 279.756 71.8181C279.753 67.7218 279.753 63.6256 279.761 59.5294C279.769 55.7763 279.767 52.0234 279.759 48.2703C279.757 46.2759 279.764 44.2815 279.772 42.2871C279.729 31.2392 278.413 22.2283 271.509 13.2666C264.221 6.23034 256.788 3.81165 246.882 3.8793ZM261.322 26.7045C266.027 36.859 263.509 50.2206 263.509 60.267C181.999 60.267 100.489 60.267 16.509 60.267C14.111 34.1198 14.111 34.1198 20.509 24.267C25.41 19.8494 29.53 19.694 35.808 19.759C36.736 19.753 37.664 19.7465 38.62 19.7401C41.724 19.7242 44.828 19.7371 47.933 19.7491C50.16 19.7431 52.388 19.7365 54.616 19.7278C60.663 19.7096 66.71 19.7168 72.758 19.7289C79.085 19.7391 85.412 19.7296 91.74 19.7228C103.046 19.7148 114.353 19.7278 125.659 19.7478C135.906 19.7657 146.154 19.7627 156.401 19.7439C168.307 19.7224 180.212 19.7144 192.118 19.7262C198.418 19.7322 204.718 19.7332 211.019 19.7202C216.942 19.7086 222.864 19.7162 228.787 19.7397C230.961 19.7447 233.136 19.7437 235.31 19.7347C238.277 19.7238 241.243 19.7377 244.21 19.7574C245.072 19.7484 245.933 19.7397 246.821 19.7305C253.195 19.8137 257.366 21.3836 261.322 26.7029V26.7045Z" fill="black"/>
</g>
<defs>
<clipPath id="clip0_466_56079">
<rect width="280.551" height="449.393" fill="white"/>
</clipPath>
</defs>
</svg>
