<svg width="399" height="57" viewBox="0 0 399 57" fill="none" xmlns="http://www.w3.org/2000/svg">
<g clip-path="url(#clip0_208_1588)">
<path d="M159.583 18.9583C155.208 18.5417 151.458 19.7917 148.333 23.75V22.5V1.66667V1.45834V0L136.667 1.45834V55.8333H148.125V52.7083C149.792 53.9583 151.25 55 152.916 55.8333C159.583 58.125 168.541 56.25 171.666 47.2917C173.541 41.4583 173.542 35.625 172.083 29.5833C170.625 23.3333 166.25 19.7917 159.583 18.9583ZM161.25 42.5C160.625 46.0417 157.917 48.125 154.583 47.7083C153.75 47.7083 152.917 47.5 152.292 47.0833C149.583 45.4167 148.75 42.9167 148.541 41.0417C148.333 38.5417 148.125 33.125 149.375 30.625C150.417 28.75 152.291 27.7083 154.791 27.5C158.333 27.2917 160.833 29.1667 161.25 32.7083C161.666 36.25 161.666 39.375 161.25 42.5Z" fill="#3B5998"/>
<path d="M200.417 19.583C196.459 18.5413 192.292 18.5413 188.334 19.583C182.5 21.2497 178.334 24.9997 177.084 31.0413C176.25 34.3747 176.25 37.708 176.459 41.0413C176.875 48.7497 181.667 54.3747 189.167 55.833C189.375 55.833 189.375 55.833 189.584 55.833C189.792 55.833 190.209 56.0413 190.417 56.0413H190.625C191.042 56.0413 191.459 56.2497 191.875 56.2497C193.334 56.458 195.209 56.458 196.667 56.2497H196.875C204.584 55.833 210.417 51.0413 212.084 43.5413C213.125 39.3747 213.125 35.4163 212.084 31.2497C210.834 25.4163 206.875 21.2497 200.417 19.583ZM201.042 41.8747C201.042 42.083 201.042 42.2913 200.834 42.708C200 46.0413 197.709 48.1247 194.375 47.9163C190.834 47.708 188.334 45.833 188.125 42.083C187.917 39.583 187.917 36.8747 188.125 34.1663C188.542 29.9997 191.042 27.9163 194.792 27.9163C197.917 27.9163 200.209 29.7913 200.834 32.9163C201.667 35.833 201.042 41.2497 201.042 41.8747Z" fill="#3B5998"/>
<path d="M27.0833 19.3752H18.75V13.7502C19.375 8.54185 27.9167 9.58352 27.9167 9.58352V9.16685V0.625182C27.7083 0.625182 10.8333 -3.33315 7.5 9.37518C6.875 11.0418 7.08334 18.3335 7.08334 19.3752H0V29.1668H7.5V55.6252H18.5417V29.1668H27.0833L28.125 19.3752H27.0833Z" fill="#3B5998"/>
<path d="M53.3333 24.1663C53.125 23.958 53.125 23.9579 52.9166 23.7496C52.7083 23.5413 52.7083 23.5413 52.7083 23.5413C50.2083 21.0413 49.1666 20.2079 47.0833 19.5829C39.1666 17.2913 31.6666 21.458 29.375 29.3746C27.7083 34.1663 27.7083 39.3746 28.75 43.958C30.625 54.583 38.5416 58.1246 46.875 56.458C49.375 55.833 51.4583 54.3746 53.125 52.0829C53.125 52.0829 53.3333 51.8746 53.5416 51.4579V56.2496H64.1666V19.5829H53.125V24.1663H53.3333ZM52.7083 42.4996C52.2916 45.8329 49.5833 47.9163 46.4583 47.9163C43.125 47.7079 40.8333 45.8329 40.4166 42.7079C39.5833 38.1246 40.625 32.708 40.625 32.4996C41.4583 29.583 43.75 27.9163 46.875 27.9163C50 27.9163 52.5 29.9996 52.9166 33.3329C52.9166 36.2496 52.9166 39.3746 52.7083 42.4996Z" fill="#3B5998"/>
<path d="M97.0836 53.3334C96.4586 51.4584 96.0419 49.7917 95.4169 47.9167L94.7919 45.8334C94.7919 45.8334 81.2502 52.2917 79.1669 40C78.9586 37.9167 78.9586 35.8334 79.3752 33.9584C80.0002 30.2084 82.0836 28.125 85.8336 27.9167C87.0836 27.7084 88.3336 27.9167 89.5836 28.125C91.2502 28.3334 92.9169 28.9584 94.7919 29.375C95.4169 27.2917 96.2502 25.4167 96.8752 23.5417C96.8752 23.125 97.0836 22.9167 97.0836 22.7084L97.5002 21.4584C97.5002 21.25 97.2919 21.0417 96.8752 21.0417C96.4586 20.8334 96.0419 20.625 95.2086 20.2084C94.7919 20 94.5836 20 94.1669 19.7917C93.7502 19.7917 93.7502 19.5834 93.7502 19.5834C90.2086 18.5417 86.6669 18.3334 82.9169 18.75C75.2086 19.5834 69.7919 24.1667 68.3336 31.875C67.5002 35.8334 67.5002 40 68.5419 43.9584C70.0002 49.7917 73.5419 53.9584 79.3752 55.625C83.3336 56.875 87.2919 56.875 91.0419 56.25C92.7086 56.0417 95.0002 55 96.8752 54.375L97.5002 54.1667L97.0836 53.3334Z" fill="#3B5998"/>
<path d="M132.708 39.1671C132.708 36.6671 132.708 33.9588 132.291 31.6671C131.25 25.0005 127.083 20.6254 120.416 19.3754C117.916 18.9588 115 18.9588 112.5 19.1671C105.416 19.7921 99.9998 24.3755 98.7498 31.0421C98.1248 35.0005 97.9164 39.3755 98.5414 43.5421C99.3748 49.5838 102.291 53.5421 107.5 55.4171C109.791 56.2505 121.458 59.1671 131.458 53.9588L131.041 52.2921C130.625 50.2088 130 48.3338 129.375 46.4588V46.2505C129.375 46.2505 129.166 46.2505 128.75 46.4588C128.333 46.6671 127.916 46.6671 127.291 46.8755H127.083C125.416 47.2921 123.333 47.9171 121.041 48.1255C118.958 48.3338 117.083 48.3338 115 48.1255C111.875 47.5005 109.166 46.0421 109.375 41.8755H111.25C117.5 41.8755 123.958 41.8755 130.208 41.8755C130.416 41.8755 130.625 41.8755 130.625 41.8755H132.083V41.4588L132.708 39.1671ZM122.291 34.1671H109.791C109.791 31.6671 110.208 29.3755 112.291 28.1255C114.583 26.4588 117.291 26.4588 119.583 27.9171C122.291 28.9588 122.5 31.4588 122.291 34.1671Z" fill="#3B5998"/>
<path d="M255.833 1.45801V56.0413H267.292V39.3747L278.125 56.0413H290.417L278.542 37.9163L290.417 19.9997H278.125L267.292 36.458V1.66634V1.45801V0.208008L255.833 1.45801Z" fill="#3B5998"/>
<path d="M239.792 19.583C235.833 18.5413 231.667 18.5413 227.709 19.583C221.667 21.2497 217.709 24.9997 216.459 31.0413C215.625 34.3747 215.625 37.708 215.834 41.0413C216.25 48.7497 221.042 54.3747 228.542 55.833C228.75 55.833 228.75 55.833 228.959 55.833C229.167 55.833 229.584 56.0413 229.792 56.0413H230C230.417 56.0413 230.834 56.2497 231.25 56.2497C232.709 56.458 234.584 56.458 236.042 56.2497H236.25C243.959 55.833 249.792 51.0413 251.459 43.5413C252.5 39.3747 252.5 35.4163 251.459 31.2497C250.209 25.4163 246.25 21.2497 239.792 19.583ZM240.417 41.8747C240.417 42.083 240.417 42.2913 240.209 42.708C239.375 46.0413 237.084 48.1247 233.75 47.9163C230.209 47.708 227.709 45.833 227.5 42.083C227.292 39.583 227.292 36.8747 227.5 34.1663C227.917 29.9997 230.417 27.9163 234.167 27.9163C237.292 27.9163 239.584 29.7913 240.209 32.9163C241.042 35.833 240.417 41.2497 240.417 41.8747Z" fill="#3B5998"/>
<path d="M339.792 55L336.667 43.9583H319.792L316.667 55H312.5L326.042 10H330.625L344.167 55H339.792ZM328.125 14.5833L320.417 40.625H335.625L328.125 14.5833Z" fill="#828282"/>
<path d="M367.917 54.9997V50.208C366.042 53.5413 362.708 56.0413 359.167 56.0413C351.875 56.0413 347.708 49.1663 347.708 38.958C347.708 28.7497 351.875 21.8747 359.167 21.8747C362.5 21.8747 365.833 23.958 367.917 27.708V10.208H371.25V55.208L367.917 54.9997ZM367.917 46.8747V30.833C366.458 27.708 363.334 24.7913 359.792 24.7913C353.959 24.7913 351.25 31.2497 351.25 38.7497C351.25 46.2497 353.75 52.708 359.792 52.708C363.334 52.708 366.458 49.9997 367.917 46.8747Z" fill="#828282"/>
<path d="M378.125 51.2503L380 48.9587C381.875 51.2503 384.583 53.1253 388.333 53.1253C392.5 53.1253 395.208 50.8337 395.208 47.0837C395.208 38.542 378.958 41.2503 378.958 30.0003C378.958 25.417 382.708 21.667 388.75 21.667C392.917 21.667 396.042 23.3337 398.125 25.8337L396.25 28.1253C394.583 25.8337 391.875 24.5837 388.75 24.5837C384.792 24.5837 382.5 26.8753 382.5 30.0003C382.5 37.917 398.75 35.6253 398.75 47.0837C398.75 52.292 394.792 56.042 388.75 56.042C384.167 56.042 381.042 54.3753 378.125 51.2503Z" fill="#828282"/>
</g>
<defs>
<clipPath id="clip0_208_1588">
<rect width="398.75" height="56.9842" fill="white"/>
</clipPath>
</defs>
</svg>
