<svg width="214" height="212" viewBox="0 0 214 212" fill="none" xmlns="http://www.w3.org/2000/svg">
<path d="M213.522 37.5341C213.433 37.2359 213.343 36.9378 213.224 36.6396C142.594 36.6695 71.9945 36.6396 1.3945 36.6695C1.21561 36.8782 1.09636 37.0869 1.06654 37.3552C1.06654 92.1239 1.06654 146.862 1.03613 201.631C1.48335 204.553 3.09331 207.206 5.24053 209.204C5.32997 209.234 5.53867 209.263 5.62811 209.293C6.73124 210.455 8.31139 211.023 9.8021 211.559C10.9052 211.5 11.9785 211.977 13.0817 211.857H100.735C101.57 211.828 102.434 211.977 103.239 211.649C103.27 211.53 103.299 211.321 103.329 211.202C103.359 211.053 103.388 210.725 103.418 210.546C105.297 200.052 107.115 189.527 109.113 179.033L109.292 177.691C101.183 177.661 93.0433 177.691 84.9342 177.661C82.9661 177.601 80.9394 177.661 78.9713 177.422C75.6026 177.273 72.2038 177.392 68.8348 177.064C64.6608 177.064 60.5166 176.677 56.3426 176.677C53.0631 176.349 49.7537 176.468 46.4443 176.319C44.2983 176.051 42.0915 176.17 39.9156 176.08C36.3677 175.693 32.7602 175.962 29.2123 175.574C25.4557 175.604 21.6992 175.276 17.9426 175.186C17.9724 175.156 18.0022 175.037 18.0022 175.007C19.2544 175.037 20.4768 174.948 21.729 174.918C24.5017 174.56 27.3042 174.799 30.0769 174.411C32.9689 174.411 35.8311 174.023 38.7231 174.023C41.2871 173.665 43.8809 173.874 46.4443 173.516C49.4562 173.516 52.4072 173.129 55.419 173.099C57.8936 172.771 60.398 172.95 62.8726 172.622C65.7645 172.652 68.6267 172.204 71.5187 172.235C74.351 171.906 77.2424 171.995 80.0747 171.697C79.807 170.595 79.5977 169.491 79.3598 168.388C79.1511 167.702 78.3163 167.851 77.7796 167.762C71.31 166.837 64.8701 165.913 58.4302 165.019C58.8476 164.69 59.4141 164.839 59.8911 164.78C64.8999 164.392 69.8789 163.945 74.8877 163.588C76.0206 163.528 77.1237 163.319 78.2567 163.289C77.7498 161.739 77.4517 160.04 76.766 158.609C66.0633 156.969 55.3594 155.508 44.6859 153.749C47.4586 153.302 50.2612 153.093 53.0339 152.795L53.2724 152.705C62.1272 151.781 71.0118 150.737 79.8666 149.873C91.106 149.814 102.317 149.843 113.557 149.873C113.914 149.814 114.541 149.992 114.6 149.485C115.524 144.656 116.419 139.826 117.342 134.995C118.624 128.288 120.652 121.669 123.782 115.557C128.702 105.718 136.483 97.3703 145.964 91.8251C154.818 86.6374 165.075 84.1331 175.271 83.656C178.581 83.3579 181.92 83.4473 185.2 83.8647C187.346 84.3716 189.552 84.9678 191.252 86.4287C192.653 87.5617 193.488 89.2313 194.114 90.9009C195.486 94.8662 196.261 98.9805 196.917 103.125C196.946 104.794 197.245 106.673 196.35 108.193C195.515 109.684 193.846 110.399 192.266 110.847C186.511 112.337 180.489 110.936 174.735 112.337C169.995 113.351 165.582 115.974 162.571 119.761C159.023 124.173 157.144 129.658 156.101 135.145C155.296 140.035 154.282 144.924 153.477 149.843C159.142 149.874 164.837 149.813 170.531 149.874C172.797 149.874 175.122 151.126 176.047 153.272C177.239 156.015 176.971 159.116 176.583 162.008C176.106 165.257 175.331 168.477 173.87 171.459C172.647 173.993 170.62 176.319 167.848 177.213C166.417 177.779 164.866 177.66 163.346 177.66C158.336 177.66 153.328 177.72 148.319 177.66C147.514 181.328 146.978 185.084 146.262 188.811C144.951 196.055 143.669 203.33 142.357 210.605C142.327 210.844 142.297 211.35 142.297 211.619C144.652 211.738 147.008 211.619 149.363 211.678C166.834 211.678 184.335 211.647 201.836 211.678C203.714 211.738 205.622 211.291 207.262 210.366C208.246 210.009 208.842 209.144 209.707 208.667C210.542 208.19 210.78 207.207 211.496 206.58C212.271 205.208 213.076 203.778 213.135 202.167C213.225 202.167 213.463 202.137 213.583 202.108C213.492 147.25 213.582 92.3922 213.522 37.5341Z" fill="url(#paint0_linear_193_1544)" stroke="#FCD109" stroke-width="0.0280253"/>
<path d="M28.8535 1.45951C31.3877 0.654528 34.0412 1.19118 36.6356 1.0123C85.3222 1.04211 134.009 1.0123 182.695 1.0123C185.587 0.893041 188.121 2.53282 190.804 3.36762C192.951 4.23223 195.187 4.91796 197.333 5.8422C197.781 6.02108 198.109 6.40867 198.436 6.73662C198.406 10.6721 198.436 14.6374 198.436 18.6027C198.466 19.6462 198.287 20.7195 198.645 21.7332C199.271 21.8226 199.599 22.2996 200.017 22.6872C201.984 23.5816 203.653 25.0425 205.442 26.2351C208.126 28.1432 210.988 29.8128 213.611 31.7805C213.73 32.5557 213.641 33.3607 213.403 34.0762C213.135 34.911 213.313 35.8055 213.224 36.6403C142.594 36.6701 71.994 36.6403 1.39404 36.6701C1.24496 35.6862 1.51329 34.7023 1.09589 33.7781C1.03627 33.0029 0.767938 31.9892 1.51329 31.4526C4.49471 29.3656 7.65501 27.4873 10.5762 25.281C12.3955 24.1183 14.1539 22.9257 15.9129 21.7332C16.2707 21.1369 16.1515 20.3915 16.1515 19.7356C16.1515 15.4126 16.1515 11.0895 16.1813 6.76644C17.195 5.45461 18.9546 5.30554 20.3553 4.64963C23.1888 3.57632 26.051 2.53282 28.8535 1.45951ZM29.0324 1.96635C25.2162 3.42725 21.3701 4.82852 17.5539 6.28941C17.0471 6.37885 16.7782 6.82607 16.5104 7.21365C16.5402 7.45216 16.5701 7.86956 16.5701 8.10808C16.5396 11.6858 16.5701 15.2635 16.5396 18.8412C16.5701 19.7356 16.4502 20.63 16.7782 21.435C16.3906 21.8226 15.9738 22.2102 15.4961 22.5083C11.1731 25.3109 6.9991 28.3519 2.67605 31.1246C1.93069 31.5718 1.09589 32.1681 1.33441 33.152C1.18534 33.6886 1.45366 34.1359 2.02013 33.9868C11.3818 33.9272 20.7136 34.0464 30.0759 33.8973C43.9991 33.8973 57.8925 33.9272 71.8157 33.8973L72.0245 33.8079C72.6505 33.957 73.276 33.8973 73.932 33.8973C99.1548 33.8973 124.378 33.9272 149.63 33.8973C157.561 33.9272 165.521 33.8973 173.481 33.8973C186.599 33.8973 199.748 34.0166 212.866 33.957C213.254 33.8675 213.373 33.5992 213.224 33.1222C213.193 32.6452 213.373 31.9892 212.866 31.6911C210.779 30.7072 208.99 29.1867 206.993 27.9941C206.278 27.3979 205.353 27.0699 204.816 26.2649C202.759 25.1022 200.851 23.6711 198.823 22.3891C198.435 22.1506 198.137 21.763 197.81 21.435C197.989 20.8089 198.048 20.1232 198.048 19.4673C198.019 15.6809 198.048 11.8945 198.019 8.10808C198.108 7.51179 198.078 6.82607 197.541 6.43848C193.963 5.15647 190.416 3.78502 186.868 2.47319C185.764 1.93654 184.542 1.6384 183.349 1.45951H30.9691C30.3144 1.48932 29.6883 1.81728 29.0324 1.96635Z" fill="#F8F3B5" stroke="#F8F3B5" stroke-width="0.0280253"/>
<path d="M16.57 8.10742C19.1936 9.21055 21.9955 9.83665 24.6496 10.91C26.0807 11.4764 26.5279 13.0268 27.154 14.279C26.5273 14.9051 25.7819 15.4119 25.0366 15.8889C22.2937 17.7374 19.4912 19.5263 16.7781 21.4344C16.4501 20.6294 16.57 19.735 16.5396 18.8405C16.57 15.2628 16.5401 11.6851 16.57 8.10742ZM189.939 10.91C192.592 9.86646 195.365 9.15092 198.019 8.10742C198.049 11.8938 198.019 15.6802 198.049 19.4666C198.049 20.1225 197.989 20.8083 197.81 21.4344C195.485 19.8244 193.13 18.3039 190.804 16.7237C189.671 15.8889 188.419 15.2628 187.405 14.2491C188.031 12.9969 188.508 11.4764 189.939 10.91Z" fill="#F7B402" stroke="#F7B402" stroke-width="0.0280253"/>
<path d="M62.0662 12.1329C65.3458 11.3578 69.0129 14.2796 68.7446 17.7082C68.7744 21.0772 65.2259 23.8201 61.9767 23.0449C60.6649 22.5977 59.4121 21.912 58.6077 20.7492C57.5642 19.1691 57.3251 17.0523 58.1605 15.3231C58.7568 13.6535 60.3668 12.5205 62.0662 12.1329ZM147.126 14.0112C148.498 12.4907 150.674 11.6261 152.701 12.1628C154.222 12.61 155.713 13.5938 156.368 15.0845C157.68 17.6486 156.667 21.107 154.103 22.4487C151.836 23.7008 148.975 23.1046 147.245 21.2859C145.486 19.2883 145.366 16.0088 147.126 14.0112Z" fill="#BDA727" stroke="#BDA727" stroke-width="0.0280253"/>
<path d="M25.0373 15.8898C25.7826 15.4128 26.528 14.9059 27.1547 14.2798L27.3628 14.4885C27.5715 16.0389 27.4224 17.619 27.482 19.1693C27.3926 23.8204 27.5715 28.5012 27.3628 33.1522C18.6868 33.1522 10.0115 33.0926 1.33497 33.1522C1.09645 32.1683 1.93125 31.572 2.67661 31.1248C6.99966 28.3521 11.1737 25.3111 15.4967 22.5085C15.9743 22.2104 16.3911 21.8228 16.7787 21.4352C19.4918 19.5271 22.2943 17.7383 25.0373 15.8898ZM187.107 15.2935C187.107 14.9059 187.197 14.578 187.405 14.25C188.418 15.2637 189.671 15.8898 190.804 16.7246C193.129 18.3047 195.484 19.8253 197.81 21.4352C198.138 21.7632 198.436 22.1508 198.823 22.3893C200.851 23.6713 202.758 25.1024 204.816 26.2651C205.353 27.0701 206.277 27.3981 206.993 27.9943C208.99 29.1869 210.779 30.7074 212.866 31.6913C213.373 31.9894 213.194 32.6454 213.224 33.1224C204.547 33.1522 195.901 33.0926 187.226 33.1522C187.077 31.9596 187.166 30.7671 187.136 29.6043C187.137 24.834 187.077 20.0638 187.107 15.2935Z" fill="#F7E62D" stroke="#F7E62D" stroke-width="0.0280253"/>
<path d="M213.224 33.1217C204.548 33.1515 195.902 33.0918 187.226 33.1515C187.077 31.9589 187.167 30.7663 187.137 29.6036C187.137 24.8333 187.077 20.063 187.106 15.2928C187.106 14.9052 187.196 14.5772 187.405 14.2493C188.031 12.9971 188.508 11.4766 189.939 10.9101C192.592 9.86659 195.365 9.15105 198.019 8.10755C198.108 7.51127 198.079 6.82554 197.541 6.43796C193.964 5.15595 190.416 3.78449 186.868 2.47267C185.765 1.93601 184.542 1.63787 183.35 1.45898H30.9695C30.3136 1.4888 29.6875 1.81675 29.0316 1.96583C25.2154 3.42672 21.3693 4.82799 17.5531 6.28888C17.0463 6.37833 16.7774 6.82554 16.5096 7.21312C16.5394 7.45164 16.5693 7.86904 16.5693 8.10755C19.1929 9.21067 21.9948 9.83677 24.6489 10.9101C26.08 11.4766 26.5272 13.0269 27.1533 14.2791L27.3614 14.4878C27.5701 16.0381 27.421 17.6183 27.4807 19.1686C27.3912 23.8196 27.5701 28.5005 27.3614 33.1515C18.6855 33.1515 10.0101 33.0918 1.3336 33.1515C1.18453 33.6881 1.45286 34.1353 2.01933 33.9863C11.381 33.9266 20.7128 34.0459 30.0751 33.8968C43.9983 33.8968 57.8917 33.9266 71.8149 33.8968L72.0236 33.8074C72.6497 33.9565 73.2752 33.8968 73.9312 33.8968C99.154 33.8968 124.377 33.9266 149.629 33.8968C157.56 33.9266 165.52 33.8968 173.48 33.8968C186.599 33.8968 199.747 34.0161 212.865 33.9565C213.254 33.867 213.373 33.5987 213.224 33.1217ZM58.1606 15.3226C58.7569 13.653 60.3663 12.52 62.0663 12.1325C65.3459 11.3573 69.013 14.2791 68.7447 17.7077C68.7745 21.0767 65.226 23.8196 61.9769 23.0445C60.665 22.5972 59.4122 21.9115 58.6079 20.7488C57.5644 19.1686 57.3258 17.0518 58.1606 15.3226ZM147.126 14.0108C148.498 12.4902 150.674 11.6256 152.701 12.1623C154.222 12.6095 155.713 13.5934 156.369 15.0841C157.68 17.6481 156.667 21.1065 154.103 22.4482C151.836 23.7004 148.975 23.1041 147.245 21.2854C145.486 19.2879 145.367 16.0083 147.126 14.0108Z" fill="url(#paint1_radial_193_1544)" stroke="#FCD109" stroke-width="0.0280253"/>
<path d="M154.725 46.2244C155.142 46.3139 152.552 43.7361 153.059 43.6169C153.536 43.6765 155.345 42.2726 157.531 43.418C159.717 44.5635 159.175 47.2441 158.927 48.2381C158.632 49.4211 157.879 50.176 157.283 50.7723C156.955 51.0406 156.22 51.458 155.772 51.4282C156.041 49.9673 155.176 49.7288 155.116 48.2381L154.725 46.2244Z" fill="url(#paint2_linear_193_1544)" stroke="#FCD109" stroke-width="0.0280253"/>
<path d="M59.4176 47.8398C59.358 49.3305 58.4928 49.569 58.7617 51.0299C58.3145 51.0598 57.5787 50.6424 57.251 50.374C56.6547 49.7777 55.9025 49.0229 55.6068 47.8398C55.3587 46.8461 54.8164 44.1655 57.0027 43.0198C59.189 41.874 60.9978 43.278 61.4748 43.2186C61.9816 43.3379 59.392 45.9156 59.8088 45.8262L59.4176 47.8398Z" fill="url(#paint3_linear_193_1544)" stroke="#FCD109" stroke-width="0.0280253"/>
<path d="M150.822 65.323C151.27 64.9336 151.568 64.9336 152.165 64.9336C148.587 72.6853 144.413 80.437 138.137 86.4723C137.466 87.0714 136.757 87.6269 136.015 88.1353C135.296 88.6609 134.592 89.154 133.892 89.6564C133.206 90.1325 132.525 90.6114 131.861 91.1107C130.161 92.035 128.671 93.3173 126.792 93.8835C123.364 95.5233 119.668 96.6264 115.941 97.4015C114.48 97.6404 112.989 97.9978 111.498 98.0276C109.65 98.5646 107.682 98.1767 105.804 98.296C104.76 98.4749 103.836 97.8786 102.822 97.9978C101.943 97.8735 101.066 97.7244 100.193 97.5503C99.3085 97.3695 98.4294 97.1608 97.5576 96.9245C83.8902 92.6608 70.4738 82.2258 66.5652 68.1133C66.389 67.1629 66.3002 66.1983 66.2998 65.2317C66.7169 66.0665 67.1495 66.8954 67.597 67.7165C73.1571 79.8407 84.1883 89.3812 97.2207 92.258C98.2785 92.7404 99.4234 92.5713 100.437 92.9887C101.362 92.9887 102.256 92.9589 103.15 93.2571C106.221 93.3164 109.292 93.2869 112.363 93.2869C112.78 93.3167 113.167 93.108 113.585 93.0186C118.703 92.845 123.718 91.4491 128.387 89.3323C129.322 88.909 130.242 88.4567 131.146 87.9797C131.938 87.563 132.71 87.1116 133.462 86.6267C134.2 86.1508 134.918 85.6439 135.614 85.1074C141.133 80.7351 145.904 75.0704 149.143 68.5563C149.76 67.384 150.324 66.2985 150.822 65.323Z" fill="#BDA727" stroke="#BDA727" stroke-width="0.0280253"/>
<path d="M145.963 91.8261C154.818 86.6384 165.074 84.134 175.271 83.657C178.58 83.3589 181.919 83.4483 185.199 83.8657C187.346 84.3725 189.552 84.9688 191.251 86.4297C190.387 86.4894 189.552 86.1018 188.687 85.9825C186.243 85.5055 183.708 85.6844 181.234 85.6247C174.048 85.6247 166.804 86.1912 159.857 88.1589C156.22 89.2621 152.582 90.5441 149.273 92.4522C143.549 95.6125 138.391 99.7865 134.217 104.795C126.763 113.352 122.381 124.204 120.264 135.266C119.25 141.198 118.087 147.101 117.163 153.064C115.672 153.213 114.152 153.124 112.661 153.124C106.102 153.094 99.5429 153.064 92.9837 153.005C91.5825 153.064 90.2104 152.737 88.8097 152.826C76.8841 152.885 64.9584 152.796 53.0327 152.796L53.2712 152.706C62.126 151.781 71.0107 150.738 79.8655 149.874C91.1048 149.814 102.316 149.843 113.556 149.874C113.913 149.814 114.539 149.992 114.599 149.486C115.523 144.656 116.418 139.827 117.341 134.996C118.624 128.289 120.651 121.67 123.782 115.558C128.701 105.719 136.483 97.3712 145.963 91.8261Z" fill="#0D69B3" stroke="#0D69B3" stroke-width="0.0280253"/>
<path d="M159.857 88.1592C166.804 86.1915 174.049 85.625 181.234 85.625C183.708 85.6846 186.243 85.5057 188.687 85.9828C189.551 86.102 190.386 86.4896 191.251 86.43C192.653 87.5629 193.488 89.2325 194.114 90.9021C195.486 94.8674 196.26 98.9818 196.916 103.126C196.946 104.796 197.244 106.674 196.35 108.194C195.515 109.685 193.846 110.401 192.265 110.848C186.511 112.339 180.489 110.937 174.734 112.339C169.995 113.352 165.582 115.976 162.57 119.762C159.023 124.174 157.144 129.66 156.101 135.146C155.296 140.036 154.282 144.925 153.477 149.844C153.119 150.948 152.911 152.14 152.702 153.304C158.336 153.393 163.971 153.304 169.606 153.363C171.752 153.304 173.899 153.422 176.046 153.273C177.239 156.016 176.97 159.117 176.583 162.009C176.106 165.259 175.331 168.478 173.87 171.46C172.647 173.994 170.62 176.32 167.847 177.214C166.416 177.781 164.866 177.661 163.345 177.661C158.336 177.661 153.327 177.721 148.319 177.661C147.514 181.329 146.977 185.085 146.262 188.812C144.951 196.056 143.668 203.331 142.356 210.606C142.326 210.845 142.297 211.351 142.297 211.62V211.65C129.268 211.65 116.269 211.68 103.24 211.65C103.27 211.531 103.3 211.322 103.329 211.202C103.36 211.053 103.389 210.725 103.419 210.547C103.449 210.786 103.478 211.233 103.509 211.441C104.314 211.531 105.775 211.948 105.983 210.786C108.011 199.814 109.889 188.782 111.976 177.81C111.171 177.632 110.336 177.632 109.502 177.781C109.383 178.198 109.263 178.615 109.114 179.033L109.293 177.691C101.184 177.661 93.0441 177.691 84.9352 177.661C82.9669 177.602 80.9401 177.661 78.9724 177.422C75.6034 177.273 72.2046 177.392 68.8356 177.064C64.6616 177.064 60.5174 176.677 56.3434 176.677C53.0639 176.349 49.7545 176.468 46.4451 176.319C44.2991 176.051 42.0923 176.17 39.9164 176.081C36.3685 175.693 32.761 175.962 29.2131 175.574C25.4565 175.604 21.6999 175.275 17.9434 175.186C17.9732 175.156 18.003 175.037 18.003 175.007C19.2552 175.037 20.4776 174.947 21.7298 174.918C24.5025 174.56 27.305 174.798 30.0777 174.411C32.9697 174.411 35.8319 174.023 38.7238 174.023C41.2879 173.666 43.8817 173.874 46.4451 173.517C49.457 173.517 52.408 173.129 55.4198 173.099C57.8944 172.771 60.3988 172.95 62.8733 172.622C65.7653 172.652 68.6275 172.205 71.5195 172.234C74.3518 171.906 77.2432 171.996 80.0755 171.697C79.8078 170.595 79.5985 169.492 79.3606 168.388C79.1519 167.702 78.3171 167.851 77.7804 167.762C71.3108 166.837 64.8709 165.913 58.431 165.019C58.8484 164.69 59.4149 164.839 59.8919 164.78C64.9007 164.392 69.8797 163.945 74.8885 163.588C76.0214 163.528 77.1245 163.32 78.2575 163.29C77.7506 161.739 77.4525 160.04 76.7668 158.609C66.0641 156.969 55.3602 155.508 44.6867 153.749C47.4594 153.302 50.2619 153.093 53.0347 152.795C64.9603 152.795 76.886 152.885 88.8117 152.825C90.2124 152.736 91.5844 153.063 92.9857 153.004C99.5448 153.063 106.104 153.094 112.663 153.123C114.154 153.123 115.674 153.213 117.165 153.064C118.089 147.101 119.252 141.197 120.266 135.265C122.382 124.203 126.765 113.351 134.219 104.795C138.393 99.7858 143.551 95.6119 149.275 92.4516C152.582 90.5443 156.22 89.2623 159.857 88.1592Z" fill="#107BD4" stroke="#107BD4" stroke-width="0.0280253"/>
<path d="M153.476 149.844C159.141 149.874 164.836 149.814 170.53 149.874C172.796 149.874 175.122 151.126 176.046 153.272C173.899 153.421 171.753 153.303 169.606 153.362C163.971 153.303 158.336 153.393 152.701 153.303C152.91 152.14 153.118 150.947 153.476 149.844ZM109.501 177.78C110.335 177.631 111.171 177.631 111.975 177.81C109.888 188.782 108.01 199.813 105.982 210.785C105.774 211.947 104.313 211.53 103.508 211.44C103.477 211.232 103.448 210.785 103.418 210.546C105.297 200.052 107.115 189.527 109.113 179.033C109.262 178.614 109.381 178.198 109.501 177.78Z" fill="#0D69B3" stroke="#0D69B3" stroke-width="0.0280253"/>
<path d="M156.084 47.0585C155.845 46.6113 155.816 46.0747 155.816 45.5678L155.577 45.5976C155.22 44.2858 154.117 43.0336 152.685 42.974C151.612 42.8845 150.27 42.9143 149.645 43.928C148.452 45.538 149.018 47.5952 148.959 49.4138C148.959 49.5331 148.989 49.7418 148.989 49.8611C148.989 51.0834 148.84 52.276 148.631 53.4686C148.452 53.8263 148.363 54.2139 148.363 54.6313C147.856 57.4339 146.842 60.2066 145.471 62.7408C145.203 63.0986 144.994 63.4861 144.905 63.9035C144.01 65.4539 142.937 66.885 141.834 68.316C141.655 68.4651 141.506 68.644 141.357 68.8229C140.581 69.7769 139.747 70.5819 138.882 71.4167C138.673 71.536 138.524 71.685 138.345 71.8043C137.332 72.7882 136.198 73.7124 134.976 74.4578C134.827 74.5472 134.678 74.6665 134.499 74.7857C126.866 79.8243 117.594 81.9113 108.56 82.0008C100.898 82.2393 93.176 80.5995 86.2591 77.2901C86.1404 77.2305 85.8423 77.1112 85.7224 77.0516C84.5599 76.4255 83.3674 75.8888 82.2938 75.1137C82.0553 74.9944 81.8167 74.8453 81.5484 74.7261C80.4453 74.0702 79.4018 73.3546 78.4179 72.5198C78.09 72.2217 77.7322 71.9832 77.3744 71.7149C76.3011 70.8502 75.198 69.926 74.2743 68.8825C74.0358 68.6142 73.7967 68.3757 73.5588 68.1372C70.3097 64.7681 67.7755 60.6538 66.4338 56.1817C65.1512 52.6338 65.3307 48.7579 65.1816 45.0312C64.1077 43.3914 61.8424 42.4671 60.0536 43.4808C59.3082 44.0175 59.2188 45.0013 58.6523 45.6871C57.7281 55.5257 61.9319 65.3346 68.6401 72.4304C68.6401 72.6689 68.7593 72.818 68.9686 72.9074C70.1612 74.0105 71.3233 75.1435 72.5159 76.2168C72.7246 76.4255 72.9631 76.6342 73.2315 76.8131C74.424 77.797 75.706 78.6914 76.9582 79.6156C77.1967 79.7945 77.4353 79.9436 77.7036 80.0926C79.3434 81.0467 80.8931 82.1796 82.6527 82.8355C82.772 82.925 82.9807 83.0741 83.0999 83.1337C88.7646 85.8468 94.8766 87.6953 101.138 88.2915C101.823 88.2915 102.509 88.3512 103.195 88.5002C106.176 88.6791 109.158 88.5897 112.139 88.5301C121.351 87.7251 130.862 85.489 138.554 80.0628L138.644 80.1821C138.882 79.9734 139.091 79.7945 139.33 79.6156C140.552 78.7212 141.745 77.7671 142.938 76.7833C143.205 76.5746 143.503 76.3361 143.772 76.0677C145.084 74.6366 146.605 73.3248 147.708 71.685L147.887 71.7745C147.976 71.6254 148.125 71.3273 148.215 71.1782C149.228 69.8068 150.153 68.3757 151.048 66.9446C151.107 66.8551 151.256 66.7061 151.315 66.6166L151.197 66.4974C151.286 66.3781 151.495 66.1396 151.584 66.0203C153.224 62.6812 154.684 59.1929 155.192 55.4959C155.401 55.4065 155.52 55.2276 155.52 55.0189C155.55 53.8263 155.967 52.6934 155.848 51.5008C156.113 50.0399 156.144 48.5492 156.084 47.0585Z" fill="white" stroke="white" stroke-width="0.0280253"/>
<mask id="mask0_193_1544" style="mask-type:luminance" maskUnits="userSpaceOnUse" x="58" y="42" width="99" height="47">
<path d="M156.084 47.0585C155.845 46.6113 155.816 46.0747 155.816 45.5678L155.577 45.5976C155.22 44.2858 154.117 43.0336 152.685 42.974C151.612 42.8845 150.27 42.9143 149.645 43.928C148.452 45.538 149.018 47.5952 148.959 49.4138C148.959 49.5331 148.989 49.7418 148.989 49.8611C148.989 51.0834 148.84 52.276 148.631 53.4686C148.452 53.8263 148.363 54.2139 148.363 54.6313C147.856 57.4339 146.842 60.2066 145.471 62.7408C145.203 63.0986 144.994 63.4861 144.905 63.9035C144.01 65.4539 142.937 66.885 141.834 68.316C141.655 68.4651 141.506 68.644 141.357 68.8229C140.581 69.7769 139.747 70.5819 138.882 71.4167C138.673 71.536 138.524 71.685 138.345 71.8043C137.332 72.7882 136.198 73.7124 134.976 74.4578C134.827 74.5472 134.678 74.6665 134.499 74.7857C126.866 79.8243 117.594 81.9113 108.56 82.0008C100.898 82.2393 93.176 80.5995 86.2591 77.2901C86.1404 77.2305 85.8423 77.1112 85.7224 77.0516C84.5599 76.4255 83.3674 75.8888 82.2938 75.1137C82.0553 74.9944 81.8167 74.8453 81.5484 74.7261C80.4453 74.0702 79.4018 73.3546 78.4179 72.5198C78.09 72.2217 77.7322 71.9832 77.3744 71.7149C76.3011 70.8502 75.198 69.926 74.2743 68.8825C74.0358 68.6142 73.7967 68.3757 73.5588 68.1372C70.3097 64.7681 67.7755 60.6538 66.4338 56.1817C65.1512 52.6338 65.3307 48.7579 65.1816 45.0312C64.1077 43.3914 61.8424 42.4671 60.0536 43.4808C59.3082 44.0175 59.2188 45.0013 58.6523 45.6871C57.7281 55.5257 61.9319 65.3346 68.6401 72.4304C68.6401 72.6689 68.7593 72.818 68.9686 72.9074C70.1612 74.0105 71.3233 75.1435 72.5159 76.2168C72.7246 76.4255 72.9631 76.6342 73.2315 76.8131C74.424 77.797 75.706 78.6914 76.9582 79.6156C77.1967 79.7945 77.4353 79.9436 77.7036 80.0926C79.3434 81.0467 80.8931 82.1796 82.6527 82.8355C82.772 82.925 82.9807 83.0741 83.0999 83.1337C88.7646 85.8468 94.8766 87.6953 101.138 88.2915C101.823 88.2915 102.509 88.3512 103.195 88.5002C106.176 88.6791 109.158 88.5897 112.139 88.5301C121.351 87.7251 130.862 85.489 138.554 80.0628L138.644 80.1821C138.882 79.9734 139.091 79.7945 139.33 79.6156C140.552 78.7212 141.745 77.7671 142.938 76.7833C143.205 76.5746 143.503 76.3361 143.772 76.0677C145.084 74.6366 146.605 73.3248 147.708 71.685L147.887 71.7745C147.976 71.6254 148.125 71.3273 148.215 71.1782C149.228 69.8068 150.153 68.3757 151.048 66.9446C151.107 66.8551 151.256 66.7061 151.315 66.6166L151.197 66.4974C151.286 66.3781 151.495 66.1396 151.584 66.0203C153.224 62.6812 154.684 59.1929 155.192 55.4959C155.401 55.4065 155.52 55.2276 155.52 55.0189C155.55 53.8263 155.967 52.6934 155.848 51.5008C156.113 50.0399 156.144 48.5492 156.084 47.0585V47.0585Z" fill="white"/>
</mask>
<g mask="url(#mask0_193_1544)">
<path d="M56.3618 46.0517C58.7786 46.8099 64.3308 44.9024 65.9024 46.648M57.7532 53.4057C60.0692 52.5998 65.0354 50.6917 67.0949 51.8157M60.1384 60.7599C61.2579 61.1225 63.4647 59.1556 64.561 58.5793C66.1919 57.7216 67.865 57.0642 69.6789 56.7848M63.7161 68.5116C64.8708 66.8706 66.253 65.5078 67.9211 64.3421C69.5746 63.1871 74.098 60.101 76.0392 61.1573M67.0949 74.077C68.4056 73.035 68.9392 71.1919 70.3154 70.0971C71.9803 68.7728 74.5309 68.5352 76.238 67.7165M72.7098 78.2009C73.1019 75.3185 76.0287 71.8401 78.8217 72.089M77.0329 82.2261C78.5087 82.0783 79.7573 78.7749 80.7552 77.6553C82.2507 75.9783 83.7998 75.4625 85.778 74.8719M85.5794 85.8038C85.484 83.718 87.6393 77.7376 90.1511 78.0522M91.94 87.7916C91.8353 85.3265 93.1099 77.912 96.114 77.6547M98.4991 91.7667C97.9294 88.3196 97.9663 83.3328 100.685 80.8347M106.649 92.5618C106.345 89.6883 103.49 83.8796 106.649 81.6299M115.394 90.5741C114.031 88.9937 113.238 82.7595 113.803 81.0336M123.742 89.1827C122.69 87.2737 121.387 85.481 120.989 83.2649C120.751 81.9405 121.168 80.0539 120.959 79.0459M130.698 86.2013C128.418 84.7097 127.785 79.2274 128.512 76.8596M137.456 83.2199C135.834 79.7402 134.105 77.0424 134.077 73.083M144.015 76.8596C141.495 75.1641 138.278 72.0819 138.649 68.7105M150.972 71.493C147.142 70.6445 142.547 67.218 140.239 64.1388M154.152 64.9339C151.389 64.3415 142.261 60.7802 142.823 57.1822M157.133 57.9774C153.284 56.5663 147.685 55.2977 144.612 52.6108M159.121 51.6168C156.696 51.8243 153.223 50.6505 150.759 50.2254C148.023 49.7534 145.485 48.8313 142.823 48.2377M156.736 45.4554C152.059 45.7354 147.672 44.1352 143.419 42.6729" stroke="#D1D1D1" stroke-width="0.596284"/>
</g>
<defs>
<linearGradient id="paint0_linear_193_1544" x1="107.309" y1="36.6394" x2="107.309" y2="211.877" gradientUnits="userSpaceOnUse">
<stop stop-color="#F7E830"/>
<stop offset="1" stop-color="#FDCB06"/>
</linearGradient>
<radialGradient id="paint1_radial_193_1544" cx="0" cy="0" r="1" gradientUnits="userSpaceOnUse" gradientTransform="translate(106.396 116.565) scale(142.536 142.536)">
<stop offset="0.596" stop-color="#F29405"/>
<stop offset="0.736" stop-color="#F7D01E"/>
<stop offset="1" stop-color="#FDCB06"/>
</radialGradient>
<linearGradient id="paint2_linear_193_1544" x1="156.07" y1="42.9645" x2="156.12" y2="51.2627" gradientUnits="userSpaceOnUse">
<stop stop-color="#FADA1C"/>
<stop offset="1" stop-color="#FDCB06"/>
</linearGradient>
<linearGradient id="paint3_linear_193_1544" x1="58.4633" y1="42.5663" x2="58.4135" y2="50.8645" gradientUnits="userSpaceOnUse">
<stop stop-color="#FADA1C"/>
<stop offset="1" stop-color="#FDCB06"/>
</linearGradient>
</defs>
</svg>
