<svg width="322" height="160" viewBox="0 0 322 160" fill="none" xmlns="http://www.w3.org/2000/svg">
<g clip-path="url(#clip0_207_1543)">
<path d="M273.297 70.0169V82.1503L268.23 79.2169C258.763 73.7503 247.297 79.2169 244.097 90.8169C239.697 106.55 245.43 118.95 257.697 120.284C262.497 120.817 264.097 120.417 267.563 117.484C272.63 113.217 273.297 113.217 273.297 117.35C273.297 120.284 273.83 120.684 277.963 120.684H282.63V89.3503V58.0169H277.963H273.297V70.0169ZM270.363 86.8169C272.897 88.5503 273.297 90.0169 273.297 97.7503C273.297 106.417 273.163 106.817 268.897 109.617C259.697 115.884 253.163 112.017 252.23 99.8836C251.83 93.3503 252.23 91.4836 254.63 88.2836C257.963 84.0169 265.43 83.3503 270.363 86.8169Z" fill="#E10036"/>
<path d="M201.963 78.2836C196.496 92.2836 188.096 113.217 185.696 118.95C185.296 120.15 186.363 120.684 189.163 120.684C192.763 120.684 193.563 119.884 196.896 112.95L200.63 105.35L209.296 104.95C221.963 104.284 223.163 104.95 226.63 113.35C229.43 120.284 229.83 120.684 234.23 120.684C238.096 120.684 238.763 120.284 237.963 118.284C229.83 97.6169 217.296 64.2836 217.296 63.3503C217.296 62.5503 215.296 62.0169 212.763 62.0169H208.23L201.963 78.2836ZM216.363 86.1503C218.496 92.0169 219.963 97.0836 219.696 97.3503C218.896 98.1503 204.096 98.5503 203.296 97.7503C202.896 97.3503 203.83 93.4836 205.43 89.2169C207.03 84.8169 208.896 80.0169 209.43 78.2836C210.096 76.6836 211.03 75.3503 211.563 75.3503C212.23 75.3503 214.363 80.1503 216.363 86.1503Z" fill="#E10036"/>
<path d="M299.03 79.3505C290.897 84.2838 291.563 93.2172 300.363 99.3505C303.43 101.484 307.297 104.15 308.897 105.35C315.297 109.884 307.43 114.15 299.163 110.684C292.897 108.15 293.297 107.884 293.297 113.217C293.297 118.684 293.963 119.217 302.363 120.284C313.163 121.484 321.297 115.884 321.297 107.217C321.297 104.017 314.497 97.0838 308.23 93.7505C304.897 91.8838 303.83 90.6838 304.23 88.4172C304.63 85.7505 305.43 85.3505 311.03 85.3505C316.897 85.3505 317.297 85.0838 317.297 81.8838C317.297 79.3505 316.497 78.1505 314.363 77.4838C308.763 76.0172 303.297 76.6838 299.03 79.3505Z" fill="#E10036"/>
<mask id="mask0_207_1543" style="mask-type:luminance" maskUnits="userSpaceOnUse" x="38" y="38" width="84" height="84">
<path d="M80.0002 105.688C65.8353 105.688 54.3109 94.1641 54.3109 79.9998C54.3109 65.8349 65.8353 54.3112 80.0002 54.3112C94.1651 54.3112 105.689 65.8349 105.689 79.9998C105.689 94.1641 94.1651 105.688 80.0002 105.688ZM80.0002 38.4625C57.096 38.4625 38.4629 57.0963 38.4629 79.9998C38.4629 102.904 57.096 121.537 80.0002 121.537C102.904 121.537 121.537 102.904 121.537 79.9998C121.537 57.0963 102.904 38.4625 80.0002 38.4625Z" fill="white"/>
</mask>
<g mask="url(#mask0_207_1543)">
<path d="M80.0002 105.688C65.8353 105.688 54.3109 94.1641 54.3109 79.9998C54.3109 65.8349 65.8353 54.3112 80.0002 54.3112C94.1651 54.3112 105.689 65.8349 105.689 79.9998C105.689 94.1641 94.1651 105.688 80.0002 105.688ZM80.0002 38.4625C57.096 38.4625 38.4629 57.0963 38.4629 79.9998C38.4629 102.904 57.096 121.537 80.0002 121.537C102.904 121.537 121.537 102.904 121.537 79.9998C121.537 57.0963 102.904 38.4625 80.0002 38.4625Z" fill="url(#paint0_linear_207_1543)"/>
</g>
<mask id="mask1_207_1543" style="mask-type:luminance" maskUnits="userSpaceOnUse" x="0" y="0" width="160" height="160">
<path d="M144.152 113.96C144.152 130.608 130.607 144.153 113.959 144.153H46.0411C29.3925 144.153 15.8474 130.608 15.8474 113.96V46.04C15.8474 29.3926 29.3925 15.8484 46.0411 15.8484H113.959C130.607 15.8484 144.152 29.3926 144.152 46.04V113.96ZM113.959 0.000362001H46.0411C20.6536 0.000362001 0 20.654 0 46.04V113.96C0 139.347 20.6536 160 46.0411 160H113.959C139.346 160 160 139.347 160 113.96V46.04C160 20.654 139.346 0.000362001 113.959 0.000362001Z" fill="white"/>
</mask>
<g mask="url(#mask1_207_1543)">
<path d="M144.152 113.96C144.152 130.608 130.607 144.153 113.959 144.153H46.0411C29.3925 144.153 15.8474 130.608 15.8474 113.96V46.04C15.8474 29.3926 29.3925 15.8484 46.0411 15.8484H113.959C130.607 15.8484 144.152 29.3926 144.152 46.04V113.96ZM113.959 0.000362001H46.0411C20.6536 0.000362001 0 20.654 0 46.04V113.96C0 139.347 20.6536 160 46.0411 160H113.959C139.346 160 160 139.347 160 113.96V46.04C160 20.654 139.346 0.000362001 113.959 0.000362001Z" fill="url(#paint1_linear_207_1543)"/>
</g>
<mask id="mask2_207_1543" style="mask-type:luminance" maskUnits="userSpaceOnUse" x="111" y="26" width="22" height="23">
<path d="M122.101 26.4497C116.107 26.4497 111.23 31.3266 111.23 37.3216C111.23 43.3148 116.107 48.1904 122.101 48.1904C128.095 48.1904 132.971 43.3148 132.971 37.3216C132.971 31.3266 128.095 26.4497 122.101 26.4497Z" fill="white"/>
</mask>
<g mask="url(#mask2_207_1543)">
<path d="M122.101 26.4497C116.107 26.4497 111.23 31.3266 111.23 37.3216C111.23 43.3148 116.107 48.1904 122.101 48.1904C128.095 48.1904 132.971 43.3148 132.971 37.3216C132.971 31.3266 128.095 26.4497 122.101 26.4497Z" fill="url(#paint2_linear_207_1543)"/>
</g>
</g>
<defs>
<linearGradient id="paint0_linear_207_1543" x1="21.7324" y1="143.564" x2="144.523" y2="9.61107" gradientUnits="userSpaceOnUse">
<stop stop-color="#5B3EA0"/>
<stop offset="0.0390244" stop-color="#5B3EA0"/>
<stop offset="0.660976" stop-color="#EE2360"/>
<stop offset="1" stop-color="#F9AE26"/>
</linearGradient>
<linearGradient id="paint1_linear_207_1543" x1="21.7324" y1="143.565" x2="144.523" y2="9.61151" gradientUnits="userSpaceOnUse">
<stop stop-color="#5B3EA0"/>
<stop offset="0.0390244" stop-color="#5B3EA0"/>
<stop offset="0.660976" stop-color="#EE2360"/>
<stop offset="1" stop-color="#F9AE26"/>
</linearGradient>
<linearGradient id="paint2_linear_207_1543" x1="23.3503" y1="145.048" x2="146.141" y2="11.0947" gradientUnits="userSpaceOnUse">
<stop stop-color="#5B3EA0"/>
<stop offset="0.0390244" stop-color="#5B3EA0"/>
<stop offset="0.660976" stop-color="#EE2360"/>
<stop offset="1" stop-color="#F9AE26"/>
</linearGradient>
<clipPath id="clip0_207_1543">
<rect width="321.296" height="160" fill="white"/>
</clipPath>
</defs>
</svg>
