<svg xmlns="http://www.w3.org/2000/svg" viewBox="0 0 462.4 134.3"><title>Ajio logo - Brandlogos.net</title><path d="M441.6,550.05a22.15,22.15,0,0,0,37.9-15.7V445h22.6v89.5c0,12.3-4.4,22.8-13.1,31.7-9,8.6-19.6,13-31.7,13a43.32,43.32,0,0,1-31.7-13l16-16.1Z" transform="translate(-280.8 -444.85)" style="fill:#2f4254"/><polygon points="267.3 0.1 289.5 0.1 289.5 134.2 267.3 134.2 267.3 0.1" style="fill:#2f4254"/><path d="M707.5,543.75a43.5,43.5,0,0,1-31.5,12.9,44.06,44.06,0,0,1-44.6-44.6,44.6,44.6,0,1,1,76.1,31.7Zm15.8-79.1A64.26,64.26,0,0,0,676,445q-28.05,0-47.3,19.7c-13.1,13.2-19.7,28.9-19.7,47.4a64.26,64.26,0,0,0,19.7,47.3c13,13.2,28.8,19.7,47.3,19.7a64.26,64.26,0,0,0,47.3-19.7q19.95-19.35,19.9-47.3c0-18.5-6.6-34.2-19.9-47.4Z" transform="translate(-280.8 -444.85)" style="fill:#2f4254"/><path d="M328.2,534.35h39.4L347.9,495l-19.7,39.4Zm50.6,22.3H317.1L305.7,579H280.8l67.1-134.2L415,579H390.1l-11.3-22.4Z" transform="translate(-280.8 -444.85)" style="fill:#2f4254"/></svg>