<svg width="378" height="484" viewBox="0 0 378 484" fill="none" xmlns="http://www.w3.org/2000/svg">
<path d="M261.09 169.629C261.871 169.619 262.653 169.61 263.458 169.601C265.108 169.587 266.758 169.578 268.408 169.574C270.926 169.562 273.442 169.513 275.959 169.463C277.565 169.453 279.171 169.446 280.777 169.441C281.527 169.421 282.276 169.402 283.047 169.382C286.975 169.416 288.803 169.847 291.942 172.278C293.833 174.778 294.693 176.073 295.145 179.101C295.264 179.839 295.383 180.576 295.506 181.336C295.658 182.469 295.658 182.469 295.813 183.625C295.933 184.388 296.054 185.151 296.178 185.937C296.645 188.982 297 191.916 297 195C298.416 195.481 299.833 195.959 301.25 196.437C302.039 196.704 302.828 196.971 303.641 197.246C304.419 197.495 305.198 197.743 306 198C306.643 198.227 307.287 198.454 307.95 198.689C310.361 199.299 310.361 199.299 313.164 196.726C314.329 195.705 315.482 194.67 316.625 193.625C323.866 187.181 323.866 187.181 328.125 186.5C332.198 187.025 332.823 187.363 335.684 189.98C336.38 190.615 337.076 191.251 337.793 191.905C341.565 195.485 345.27 199.125 348.938 202.812C350.087 203.956 350.087 203.956 351.26 205.123C351.988 205.852 352.715 206.581 353.465 207.332C354.449 208.317 354.449 208.317 355.453 209.323C357.636 211.689 357.986 212.894 358.426 216.144C357.85 221.361 355.447 223.745 352.188 227.687C347.927 233.094 347.927 233.094 347.383 239.707C348.692 242.721 350.086 245.333 352 248C353.862 248.164 353.862 248.164 355.762 248.332C357.404 248.491 359.046 248.651 360.688 248.812C361.504 248.882 362.321 248.953 363.162 249.025C367.762 249.491 371.309 249.972 375 253C377.426 256.588 377.306 260.25 377.301 264.433C377.305 265.148 377.309 265.863 377.314 266.6C377.32 268.108 377.32 269.617 377.316 271.126C377.313 273.426 377.336 275.725 377.361 278.025C377.364 279.494 377.364 280.964 377.363 282.433C377.373 283.117 377.382 283.8 377.391 284.504C377.349 288.843 376.663 291.558 374 295C370.311 297.459 366.784 297.924 362.5 298.625C361.728 298.759 360.956 298.893 360.16 299.031C357.074 299.555 354.136 300 351 300C350.876 300.845 350.753 301.691 350.625 302.562C350 306 350 306 348.629 309.277C347.672 312.755 347.672 312.755 348.853 314.764C350.256 316.605 351.736 318.304 353.313 320C357.395 324.488 360.076 327.584 360 334C358.848 336.152 358.848 336.152 357.063 337.937C356.414 338.606 355.766 339.275 355.098 339.964C354.405 340.636 353.713 341.308 353 342C352.339 342.661 351.677 343.322 350.996 344.004C349.665 345.335 348.327 346.66 346.984 347.98C344.394 350.616 342.01 353.403 339.641 356.238C336.735 359.358 335.048 360.824 330.734 361.546C325.678 360.806 323.126 358.412 319.25 355.25C313.982 351.099 313.982 351.099 307.586 350.16C304.849 351.225 302.492 352.458 300 354C299.34 354 298.68 354 298 354C297.951 355.073 297.902 356.147 297.852 357.254C297.777 358.69 297.701 360.126 297.625 361.562C297.594 362.267 297.563 362.971 297.531 363.697C297.271 368.411 296.614 372.547 295 377C291.436 379.694 288.622 380.133 284.285 380.066C283.079 380.052 283.079 380.052 281.848 380.037C281.238 380.025 280.628 380.012 280 380C280.009 380.952 280.018 381.905 280.027 382.887C280.108 391.904 280.168 400.922 280.207 409.939C280.228 414.575 280.256 419.21 280.302 423.845C280.346 428.325 280.369 432.805 280.38 437.286C280.387 438.988 280.401 440.69 280.423 442.391C280.584 455.508 279.672 466.182 270.16 476.121C263.486 481.926 256.467 483.149 247.874 483.16C246.929 483.165 245.983 483.17 245.009 483.176C241.827 483.191 238.644 483.2 235.461 483.208C233.185 483.218 230.908 483.228 228.632 483.238C221.141 483.269 213.651 483.29 206.16 483.308C204.886 483.312 203.611 483.315 202.298 483.318C190.278 483.349 178.258 483.376 166.237 483.393C163.453 483.397 160.669 483.401 157.885 483.405C157.193 483.406 156.501 483.407 155.788 483.408C144.593 483.425 133.398 483.466 122.203 483.517C110.699 483.569 99.1956 483.597 87.6918 483.605C81.2369 483.61 74.7825 483.625 68.3278 483.665C62.2497 483.701 56.1722 483.71 50.094 483.697C47.8689 483.697 45.6437 483.707 43.4186 483.728C19.8344 483.943 19.8344 483.943 10.0328 475.256C1.2836 466.301 0.84199 454.791 0.796936 442.996C0.791236 441.84 0.785536 440.684 0.779663 439.493C0.770238 437.054 0.763689 434.616 0.759827 432.178C0.750086 428.447 0.719025 424.717 0.687561 420.986C0.681034 418.614 0.675782 416.242 0.671936 413.871C0.659589 412.756 0.647242 411.641 0.634521 410.493C0.637523 409.452 0.640524 408.41 0.643616 407.337C0.63997 406.425 0.636324 405.513 0.632568 404.573C1.08334 401.417 2.134 399.567 4.00006 397C7.13432 394.91 7.82117 394.75 11.3829 394.754C12.2841 394.75 13.1853 394.746 14.1138 394.741C15.105 394.747 16.0963 394.753 17.1175 394.759C18.1696 394.757 19.2216 394.756 20.3055 394.754C23.8479 394.751 27.3901 394.762 30.9324 394.773C33.4649 394.773 35.9973 394.773 38.5297 394.772C43.9907 394.771 49.4516 394.777 54.9126 394.788C62.8083 394.804 70.7039 394.81 78.5996 394.812C91.4093 394.817 104.219 394.83 117.029 394.849C129.473 394.867 141.918 394.881 154.363 394.89C155.129 394.89 155.896 394.891 156.686 394.891C160.534 394.894 164.381 394.896 168.228 394.899C200.152 394.92 232.076 394.955 264 395C264 390.05 264 385.1 264 380C261.69 380 259.38 380 257 380C254.25 379.375 254.25 379.375 252 378C249.44 373.858 248.658 370.354 248.178 365.628C247.576 358.559 247.576 358.559 243.762 352.933C240.035 351.349 237.489 350.602 233.516 351.664C229.461 353.817 226.31 356.946 222.914 360.004C219.396 362.414 217.262 363.033 213 363C208.834 360.556 205.471 357.718 202.074 354.304C201.196 353.424 200.317 352.543 199.412 351.636C198.513 350.725 197.614 349.814 196.688 348.875C195.31 347.496 195.31 347.496 193.904 346.089C186.13 338.264 186.13 338.264 185.621 333.32C185.683 328.31 187.939 325.596 191.063 321.875C194.857 317.515 194.857 317.515 195.996 312.007C195.667 311.015 195.339 310.022 195 309C194.688 307.754 194.376 306.509 194.055 305.226C192.403 301.916 192.403 301.916 189.962 301.245C187.345 300.808 184.772 300.555 182.125 300.375C180.334 300.236 178.545 300.078 176.758 299.898C175.965 299.843 175.173 299.788 174.356 299.732C170.774 298.619 169.255 296.973 167 294C166.512 291.069 166.319 288.733 166.371 285.812C166.369 285.032 166.366 284.252 166.364 283.448C166.365 281.804 166.378 280.16 166.403 278.516C166.437 276.007 166.424 273.501 166.404 270.992C166.411 269.39 166.421 267.789 166.434 266.187C166.429 265.441 166.424 264.695 166.419 263.927C166.5 260.324 166.905 258.154 168.803 255.059C171.838 252.214 174.958 251.757 178.938 251.187C179.992 251.006 179.992 251.006 181.068 250.822C184.738 250.22 188.283 249.861 192 250C192.308 248.969 192.308 248.969 192.621 247.918C192.891 247.017 193.16 246.115 193.438 245.187C193.704 244.294 193.971 243.4 194.246 242.48C194.804 240.645 195.394 238.819 196 237C194.282 234.517 192.552 232.247 190.625 229.937C189.595 228.676 188.566 227.415 187.539 226.152C187.077 225.595 186.615 225.038 186.139 224.464C183.48 221.046 183.557 218.254 184 214C185.701 211.623 187.187 209.873 189.258 207.882C189.799 207.34 190.339 206.797 190.896 206.238C192.04 205.099 193.192 203.968 194.352 202.845C196.12 201.13 197.854 199.384 199.586 197.632C200.704 196.526 201.824 195.422 202.945 194.32C203.461 193.8 203.977 193.28 204.509 192.745C207.868 189.535 210.324 188.122 215 188C218.538 189.633 221.377 191.534 224.492 193.863C225.795 194.828 225.795 194.828 227.125 195.812C227.932 196.437 228.739 197.063 229.57 197.707C231.933 199.248 231.933 199.248 234.641 198.765C236.324 198.219 237.985 197.601 239.625 196.937C242 196 242 196 245 196C245.121 194.686 245.242 193.373 245.367 192.019C245.536 190.283 245.705 188.548 245.875 186.812C245.954 185.948 246.032 185.083 246.113 184.193C246.986 175.434 246.986 175.434 249 172C252.686 169.408 256.756 169.659 261.09 169.629ZM262 187C261.623 189.771 261.293 192.531 261 195.312C260.836 196.85 260.669 198.388 260.5 199.925C260.428 200.61 260.356 201.295 260.281 202.001C259.99 204.073 259.646 206.007 259 208C257.172 208.836 257.172 208.836 254.75 209.375C249.159 210.81 244.302 213.169 239.176 215.793C235.382 217.234 233.031 217.551 229 217C226.285 215.619 223.956 213.874 221.563 212C220.926 211.523 220.29 211.046 219.635 210.554C218.079 209.384 216.538 208.194 215 207C213.932 207.868 212.871 208.745 211.813 209.625C211.221 210.112 210.629 210.599 210.02 211.101C207.415 213.55 205.252 216.223 203 219C203.71 219.857 204.421 220.714 205.152 221.597C206.082 222.752 207.01 223.907 207.938 225.062C208.64 225.904 208.64 225.904 209.357 226.763C212.518 230.743 214.029 233.745 214 239C213.031 241.687 212.068 243.944 210.75 246.437C210.091 247.751 209.435 249.066 208.781 250.382C208.468 251.005 208.155 251.628 207.832 252.27C206.807 254.401 206.005 256.573 205.25 258.812C204 262 204 262 201 264C199.007 264.502 199.007 264.502 196.77 264.851C195.967 264.98 195.165 265.109 194.338 265.242C193.505 265.368 192.671 265.494 191.813 265.625C190.545 265.826 190.545 265.826 189.252 266.031C187.169 266.36 185.085 266.681 183 267C183 272.61 183 278.22 183 284C184.337 284.193 185.674 284.386 187.051 284.586C188.805 284.848 190.559 285.111 192.313 285.375C193.194 285.501 194.075 285.627 194.982 285.757C195.83 285.886 196.678 286.015 197.551 286.148C198.331 286.263 199.111 286.378 199.915 286.497C202 287 202 287 205 289C206.109 291.602 207.087 294.143 208 296.812C209.647 301.55 211.347 305.714 214 310C215.066 315.328 213.488 318.22 210.688 322.625C209.462 324.419 208.233 326.21 207 328C206.01 329.65 205.02 331.3 204 333C207.63 336.63 211.26 340.26 215 344C219.555 340.963 223.482 337.964 227.559 334.39C230.929 332.471 233.168 332.597 237 333C240.176 334.207 240.176 334.207 243.313 335.812C248.742 338.571 254.155 340.37 260 342C260.174 342.946 260.174 342.946 260.351 343.911C260.876 346.754 261.407 349.596 261.938 352.437C262.211 353.927 262.211 353.927 262.49 355.447C262.668 356.391 262.845 357.335 263.027 358.308C263.19 359.183 263.352 360.057 263.519 360.958C263.807 362.982 263.807 362.982 265 364C267.697 364.073 270.367 364.092 273.063 364.062C274.2 364.055 274.2 364.055 275.361 364.048C277.241 364.037 279.121 364.019 281 364C281.113 363.114 281.113 363.114 281.228 362.211C281.576 359.535 281.944 356.861 282.313 354.187C282.431 353.258 282.548 352.33 282.67 351.373C282.796 350.48 282.921 349.587 283.051 348.668C283.216 347.434 283.216 347.434 283.384 346.176C284.104 343.631 284.946 342.632 287 341C289.531 340.007 289.531 340.007 292.5 339.125C296.845 337.78 300.761 336.187 304.813 334.125C308.211 332.568 309.703 331.984 313.5 332.187C318.743 334.902 323.347 338.382 328 342C331.348 340.533 333.693 338.663 336.313 336.125C337.031 335.447 337.749 334.769 338.488 334.07C340.182 332.172 340.182 332.172 340.016 330.109C338.023 325.97 334.83 322.604 331.934 319.07C329.718 315.551 329.387 314.073 330 310C331.207 306.886 331.207 306.886 332.813 303.687C335.071 299.092 336.822 294.815 337.871 289.804C340.027 286.358 344.218 285.463 347.978 284.486C349.959 284.052 351.942 283.671 353.938 283.312C354.963 283.118 354.963 283.118 356.01 282.92C357.672 282.606 359.336 282.302 361 282C361.027 279.354 361.047 276.708 361.063 274.062C361.071 273.307 361.079 272.553 361.088 271.775C361.097 269.85 361.052 267.924 361 266C358.674 263.674 352.644 264.154 349.346 263.838C348.596 263.758 347.847 263.679 347.074 263.597C346.389 263.53 345.704 263.463 344.999 263.394C342.649 262.93 341.011 262.312 339 261C337.935 259.168 337.935 259.168 337.148 256.972C336.855 256.18 336.561 255.388 336.258 254.572C335.821 253.33 335.821 253.33 335.375 252.062C334.782 250.427 334.186 248.793 333.586 247.16C333.329 246.434 333.071 245.708 332.806 244.961C331.968 242.738 331.968 242.738 330 240C328.872 233.794 330.396 230.939 333.938 225.75C335.034 224.257 335.034 224.257 336.152 222.734C338.452 219.615 338.452 219.615 339 216C336.904 213.294 336.904 213.294 334.063 210.75C333.125 209.858 332.188 208.966 331.223 208.046C330.489 207.371 329.756 206.696 329 206C324.429 208.054 320.705 211.183 316.754 214.222C313.854 216.094 312.436 216.939 309 217C306.119 216.135 303.423 214.931 300.688 213.687C295.164 211.224 289.914 209.316 284 208C283.826 207.107 283.826 207.107 283.649 206.195C283.123 203.505 282.593 200.815 282.063 198.125C281.789 196.719 281.789 196.719 281.51 195.285C281.333 194.389 281.155 193.493 280.973 192.57C280.81 191.743 280.648 190.915 280.481 190.063C280.073 187.952 280.073 187.952 279 186C276.354 185.973 273.709 185.953 271.063 185.937C269.93 185.925 269.93 185.925 268.775 185.912C265.088 185.534 265.088 185.534 262 187ZM17.0001 411C13.93 434.397 13.93 434.397 21.4376 462.812C26.3663 467.02 29.6735 467.289 35.9382 467.267C36.8635 467.272 37.7888 467.276 38.7422 467.281C41.8559 467.293 44.9695 467.292 48.0833 467.29C50.3104 467.296 52.5376 467.303 54.7647 467.31C60.8247 467.328 66.8846 467.333 72.9446 467.334C77.9993 467.336 83.054 467.343 88.1088 467.35C99.3515 467.366 110.594 467.372 121.837 467.37C122.849 467.37 122.849 467.37 123.882 467.37C124.895 467.37 124.895 467.37 125.929 467.37C136.876 467.369 147.823 467.388 158.769 467.417C170.009 467.445 181.248 467.459 192.487 467.457C198.797 467.457 205.108 467.463 211.418 467.484C217.353 467.503 223.288 467.503 229.223 467.489C231.402 467.487 233.582 467.491 235.761 467.503C238.735 467.519 241.707 467.51 244.681 467.494C245.545 467.504 246.408 467.515 247.298 467.525C252.654 467.464 255.871 466.725 260 463C268.625 447.906 264 428.384 264 411C182.49 411 100.98 411 17.0001 411Z" fill="black"/>
<path d="M33.6268 0.612358C34.5779 0.606972 35.529 0.601587 36.5089 0.596038C39.6863 0.581765 42.8632 0.588861 46.0405 0.595985C48.3225 0.590281 50.6045 0.583317 52.8864 0.575188C59.0786 0.557243 65.2707 0.558427 71.4629 0.56413C76.6343 0.56722 81.8058 0.561131 86.9773 0.555091C99.8764 0.54024 112.775 0.543863 125.674 0.555955C136.865 0.565884 148.055 0.55295 159.245 0.52902C170.748 0.504609 182.251 0.495426 193.753 0.501673C200.206 0.505043 206.659 0.502625 213.112 0.485422C219.181 0.469949 225.25 0.473913 231.319 0.492727C233.543 0.496412 235.768 0.493307 237.993 0.482841C241.035 0.469624 244.077 0.481187 247.119 0.498833C248.433 0.484425 248.433 0.484425 249.773 0.469727C258.649 0.575288 265.726 3.94454 272.207 9.93363C278.529 17.2192 280.146 25.1102 280.177 34.4529C280.184 35.3038 280.19 36.1547 280.197 37.0313C280.217 39.8425 280.228 42.6536 280.238 45.4649C280.242 46.4258 280.246 47.3868 280.251 48.3769C280.271 53.4595 280.286 58.5421 280.295 63.6248C280.306 68.8752 280.341 74.1251 280.38 79.3753C280.406 83.4133 280.415 87.4513 280.418 91.4894C280.423 93.4251 280.435 95.3608 280.453 97.2964C280.478 100.004 280.477 102.71 280.47 105.418C280.489 106.616 280.489 106.616 280.509 107.838C280.473 111.612 280.14 113.78 278.096 116.997C276 119 276 119 274 119.629C273.34 119.607 272.68 119.585 272 119.563C271.34 119.564 270.68 119.565 270 119.566C268 119 268 119 264 115C264 101.14 264 87.28 264 73C182.49 73 100.98 73 17 73C17.0464 94.4655 17.0928 115.931 17.1406 138.047C17.1611 151.609 17.1805 165.172 17.1953 178.734C17.2032 185.856 17.2112 192.978 17.2197 200.1C17.2213 201.439 17.2213 201.439 17.2229 202.805C17.2403 217.226 17.2719 231.648 17.3086 246.069C17.346 260.864 17.3682 275.658 17.3764 290.452C17.3819 299.585 17.3992 308.718 17.4317 317.851C17.4528 324.109 17.4592 330.367 17.454 336.625C17.4514 340.238 17.4555 343.852 17.4768 347.465C17.4998 351.379 17.492 355.292 17.481 359.206C17.4927 360.354 17.5043 361.502 17.5163 362.684C17.5084 363.73 17.5004 364.776 17.4922 365.854C17.4937 366.758 17.4952 367.661 17.4968 368.592C16.8336 371.806 15.5567 373.002 13 375C9.50001 375.5 9.50001 375.5 6.00001 375C3.09284 372.781 2.16019 371.481 1.00001 368C0.906348 366.122 0.872666 364.242 0.871372 362.362C0.866536 360.59 0.866537 360.59 0.861603 358.782C0.863151 357.478 0.864699 356.174 0.866295 354.83C0.864428 353.436 0.862126 352.041 0.859428 350.647C0.853294 346.806 0.853449 342.965 0.854626 339.124C0.854829 334.984 0.849313 330.845 0.844566 326.706C0.836249 318.592 0.833511 310.478 0.832954 302.364C0.83248 295.768 0.830428 289.172 0.827255 282.576C0.818445 263.88 0.813833 245.184 0.814583 226.488C0.814643 224.975 0.814644 224.975 0.814705 223.432C0.814746 222.422 0.814785 221.412 0.814827 220.372C0.815233 204.015 0.80567 187.657 0.791565 171.3C0.7772 154.509 0.770296 137.718 0.77116 120.927C0.771492 111.498 0.768746 102.07 0.757984 92.6413C0.748878 84.6114 0.746702 76.5814 0.75349 68.5515C0.756755 64.4552 0.756814 60.359 0.748138 56.2628C0.740271 52.5097 0.741708 48.7568 0.750423 45.0037C0.752683 43.0093 0.74513 41.0149 0.737183 39.0205C0.77963 27.9726 2.0959 18.9617 9.00001 10C16.2876 2.96374 23.7207 0.544708 33.6268 0.612358ZM19.1875 23.4375C14.4818 33.592 17 46.9536 17 57C98.51 57 180.02 57 264 57C266.398 30.8528 266.398 30.8528 260 21C255.099 16.5824 250.979 16.4271 244.701 16.4921C243.773 16.4859 242.845 16.4796 241.889 16.4732C238.785 16.4573 235.681 16.4699 232.576 16.4825C230.349 16.477 228.121 16.4699 225.893 16.4612C219.846 16.443 213.799 16.4501 207.751 16.4627C201.424 16.4729 195.097 16.4635 188.769 16.4572C177.463 16.4494 166.156 16.4619 154.85 16.4822C144.603 16.5001 134.355 16.497 124.108 16.4786C112.202 16.4571 100.297 16.4492 88.391 16.461C82.0908 16.4672 75.7907 16.4681 69.4905 16.4549C63.5675 16.4433 57.6449 16.4513 51.722 16.4744C49.5476 16.4797 47.3731 16.4782 45.1987 16.4694C42.2317 16.4585 39.2659 16.4722 36.299 16.4921C35.4373 16.4832 34.5756 16.4743 33.6878 16.4651C27.3141 16.5483 23.1429 18.1182 19.1875 23.4375Z" fill="black"/>
<path d="M295.68 241.203C304.462 248.004 309.375 256.343 312 267C313.093 279.356 311.847 290.191 303.758 300.089C296.148 308.359 287.986 314.457 276.496 315.238C263.196 315.602 252.298 312.693 242.285 303.41C234.682 295.187 231.184 285.145 230.934 274.058C231.426 262.604 235.579 253.39 243.555 245.191C258.425 231.865 278.938 230.329 295.68 241.203ZM253.727 258.046C249.183 263.187 246.906 269.13 247 276C248.054 283.378 251.167 289.986 257.137 294.679C260.337 296.974 260.337 296.974 264 298C264.015 297.046 264.029 296.092 264.044 295.11C264.102 291.57 264.179 288.031 264.262 284.493C264.296 282.961 264.324 281.429 264.346 279.898C264.38 277.696 264.432 275.494 264.488 273.293C264.495 272.608 264.501 271.924 264.508 271.218C264.595 268.398 264.703 266.435 266.317 264.071C269.228 262.218 271.667 262.59 275 263C278.055 265.227 278.906 266.445 279.546 270.208C279.567 271.444 279.588 272.679 279.609 273.953C279.626 274.613 279.642 275.273 279.659 275.953C279.708 278.052 279.729 280.15 279.75 282.25C279.778 283.677 279.808 285.104 279.84 286.531C279.914 290.02 279.963 293.51 280 297C285.891 295.686 290.044 291.891 293.406 286.921C296.743 280.296 297.424 273.372 295.117 266.289C292.121 259.681 288.311 254.774 281.504 251.972C270.752 248.506 262.024 250.179 253.727 258.046Z" fill="black"/>
<path d="M163 90C165.312 91.0625 165.312 91.0625 167 93C168.162 98.1379 167.939 101.336 165.98 106.195C165.275 107.979 165.275 107.979 164.556 109.8C164.026 111.093 163.495 112.386 162.965 113.68C162.417 115.049 161.871 116.418 161.326 117.789C160.166 120.699 158.996 123.605 157.818 126.508C156.013 130.959 154.235 135.42 152.461 139.884C149.153 148.202 145.823 156.512 142.488 164.82C140.012 170.986 137.54 177.153 135.068 183.321C134.222 185.431 133.375 187.54 132.528 189.65C132.264 190.308 132 190.966 131.728 191.644C131.214 192.925 130.699 194.206 130.183 195.486C128.95 198.556 127.77 201.635 126.645 204.746C126.222 205.912 125.799 207.079 125.363 208.281C125.001 209.313 124.639 210.345 124.267 211.408C122.862 214.282 121.766 215.437 119 217C115.12 217.485 112.924 217.568 109.562 215.5C107.403 212.045 107.572 208.933 108 205C108.778 202.019 109.895 199.224 111.07 196.379C111.56 195.145 111.56 195.145 112.061 193.886C113.141 191.178 114.24 188.478 115.34 185.777C116.104 183.871 116.867 181.965 117.629 180.058C119.641 175.033 121.669 170.015 123.7 164.998C125.732 159.973 127.749 154.942 129.768 149.912C132.097 144.107 134.428 138.302 136.773 132.503C139.903 124.761 143.023 117.021 145.961 109.204C146.373 108.115 146.784 107.026 147.208 105.904C147.912 104.021 148.605 102.134 149.28 100.24C151.813 93.4721 155.039 88.8143 163 90Z" fill="black"/>
<path d="M92 114C95.2716 116.367 96.7065 117.9 97.75 121.813C95.7432 130.342 85.5813 137.538 79.5625 143.5C78.6402 144.418 77.7179 145.336 76.7676 146.281C74.514 148.523 72.2581 150.763 70 153C75.6766 159.873 81.9869 166.017 88.3633 172.237C89.187 173.049 90.0107 173.862 90.8594 174.699C91.6067 175.43 92.354 176.16 93.124 176.913C96.1366 180.265 97.0521 182.011 96.8125 186.563C96 190 96 190 94.9375 191.938C91.6216 193.756 88.5832 193.893 85 193C81.9492 191.034 79.5229 188.594 77 186C76.1028 185.138 76.1028 185.138 75.1875 184.258C71.6247 180.807 68.3856 177.149 65.1719 173.375C63.4003 171.438 61.5984 169.625 59.7031 167.813C58.8216 166.963 58.8216 166.963 57.9224 166.096C56.7438 164.968 55.5549 163.85 54.355 162.744C51.6806 160.173 50.1636 158.472 48.9297 154.914C49.0904 148.253 54.8678 143.766 59.2656 139.293C59.9772 138.568 60.6889 137.842 61.4221 137.095C62.9254 135.568 64.4318 134.045 65.9409 132.524C68.2441 130.194 70.5221 127.841 72.8008 125.487C74.2667 124.004 75.7341 122.523 77.2031 121.043C77.8794 120.337 78.5557 119.631 79.2525 118.903C83.3942 114.799 85.8758 112.902 92 114Z" fill="black"/>
<path d="M192.125 113.188C200.82 115.011 206.9 123.801 212.59 130.193C215.216 133.127 217.919 135.919 220.773 138.633C221.412 139.246 222.052 139.858 222.71 140.49C223.959 141.678 225.219 142.855 226.493 144.016C229.435 146.833 230.868 148.592 232.148 152.543C231.844 159.631 225.905 164.38 221.117 169.113C220.462 169.768 219.806 170.423 219.131 171.098C217.753 172.473 216.373 173.845 214.991 175.215C212.869 177.318 210.756 179.429 208.645 181.541C207.303 182.878 205.96 184.215 204.617 185.551C203.984 186.183 203.351 186.815 202.698 187.467C202.11 188.048 201.523 188.629 200.917 189.228C200.401 189.74 199.885 190.253 199.353 190.781C196.466 193.383 193.698 193.28 189.906 193.211C188 193 188 193 186.062 191.875C184.532 189.173 184.124 187.106 184 184C186.101 179.716 189.172 176.565 192.543 173.262C193.071 172.736 193.6 172.21 194.144 171.669C195.821 170.004 197.504 168.346 199.188 166.688C200.331 165.555 201.473 164.421 202.615 163.287C205.405 160.519 208.201 157.758 211 155C209.407 151.075 206.851 148.652 203.844 145.719C203.341 145.223 202.838 144.728 202.32 144.218C200.718 142.64 199.11 141.069 197.5 139.5C195.38 137.433 193.266 135.359 191.156 133.281C190.216 132.364 189.276 131.447 188.307 130.502C186.298 128.324 184.996 126.761 184 124C184.146 120.499 184.642 118.524 186.625 115.625C189 114 189 114 192.125 113.188Z" fill="black"/>
<path d="M111.092 433.628C111.798 433.624 112.504 433.62 113.232 433.617C115.561 433.609 117.89 433.622 120.219 433.637C121.84 433.637 123.462 433.637 125.083 433.635C128.479 433.635 131.875 433.646 135.271 433.664C139.622 433.687 143.973 433.687 148.325 433.68C151.672 433.677 155.02 433.684 158.367 433.693C159.971 433.697 161.576 433.698 163.18 433.697C165.423 433.697 167.665 433.709 169.908 433.725C171.822 433.732 171.822 433.732 173.775 433.739C176.814 433.985 178.49 434.333 181 436C183.082 438.676 182.996 440.118 182.875 443.563C182 447 182 447 180.4 448.69C177.081 450.502 174.5 450.389 170.725 450.404C169.636 450.414 169.636 450.414 168.526 450.425C166.132 450.443 163.738 450.439 161.344 450.434C159.678 450.438 158.011 450.444 156.345 450.45C152.855 450.458 149.365 450.456 145.875 450.446C141.402 450.435 136.93 450.455 132.458 450.484C129.018 450.502 125.578 450.502 122.137 450.496C120.488 450.496 118.839 450.502 117.19 450.515C114.885 450.53 112.581 450.519 110.275 450.502C108.964 450.502 107.653 450.501 106.301 450.501C102.47 449.92 101.321 449.032 99.0001 446C97.8076 443.359 97.9314 442.256 98.6876 439.438C101.641 433.952 105.141 433.625 111.092 433.628Z" fill="black"/>
<path d="M147.059 28.4337C148.04 28.4275 149.021 28.4213 150.032 28.4149C152.106 28.4078 154.18 28.411 156.253 28.4237C159.423 28.4376 162.59 28.4035 165.76 28.3654C167.776 28.3644 169.792 28.3663 171.809 28.3712C172.755 28.358 173.701 28.3447 174.675 28.3311C179.264 28.3959 181.349 28.5077 185.106 31.348C187 34.0001 187 34.0001 187.5 37.0626C186.953 40.2789 186.292 41.7077 184 44.0001C181.272 44.9093 179.604 45.1398 176.792 45.1771C175.525 45.1964 175.525 45.1964 174.232 45.216C172.868 45.2271 172.868 45.2271 171.477 45.2384C170.538 45.2465 169.6 45.2546 168.633 45.2629C166.648 45.2767 164.662 45.2874 162.677 45.2953C159.643 45.3125 156.611 45.3564 153.578 45.4005C151.648 45.4107 149.719 45.4192 147.789 45.4259C146.884 45.4434 145.978 45.4609 145.046 45.479C140.825 45.4645 138.59 45.3654 134.927 43.0985C132.849 40.8359 132.337 40.02 132.437 37.0001C132.436 36.3401 132.435 35.6801 132.434 35.0001C134.495 27.7206 140.786 28.4009 147.059 28.4337Z" fill="black"/>
</svg>
