<svg width="800" height="800" viewBox="0 0 800 800" fill="none" xmlns="http://www.w3.org/2000/svg">
<g clip-path="url(#clip0_209_1608)">
<path d="M771.047 535.074H54.334V668.128H771.047V535.074Z" fill="white"/>
<path d="M764.965 96.9102H48.252V525.149H764.965V96.9102Z" fill="#FF9C00"/>
<path d="M0 400V800H400H800V400V-4.17233e-05H400H0V400ZM335.2 152.533C342.533 154.4 354 158.667 360.8 162C372.8 167.733 390.667 180.267 397.2 187.2L400.4 190.533L407.867 183.733C423.333 169.6 444.4 158.267 466.533 152.267C477.867 149.2 481.867 148.8 501.333 148.8C520.8 148.8 524.8 149.2 536.267 152.4C589.733 166.667 629.067 208.933 639.333 263.067C641.067 271.867 641.333 290.267 641.333 376V478.267L637.333 486.4C629.867 501.067 617.867 508.667 601.867 508.533C586.267 508.533 574.133 500.933 566.4 486.267L563.333 480.667L562.667 377.333L562 274L558.933 266.4C545.2 232.267 506.533 217.333 473.867 233.467C465.733 237.467 454.533 247.467 449.333 255.333C447.867 257.467 445.333 262.667 443.6 266.667C440.667 274 440.667 274 440 377.333L439.333 480.667L436.267 486.267C428.533 500.933 416.4 508.533 400.8 508.667C385.067 508.667 372.933 501.067 365.067 486.267L362 480.667L361.333 378C360.667 282 360.533 274.933 358.133 268.667C354.267 258 349.733 251.333 341.333 243.467C309.2 213.867 258.933 225.467 242.4 266.4L239.333 274L238.667 376.667L238 479.333L234.267 486.933C227.467 500.933 215.2 508.4 199.333 508.533C187.867 508.667 177.2 504 170.133 495.733C160 483.867 160.667 493.333 160.667 372.667V264.667L163.733 253.333C167.333 240.4 176 221.067 183.6 209.733C190.933 198.533 208 181.333 219.467 173.333C236.667 161.467 258.8 152.533 279.333 149.2C292.4 147.067 320.8 148.8 335.2 152.533ZM509.6 554.267C511.733 556.133 512 558.667 512 573.467V590.667L517.867 586.533C526 580.667 538 579.733 546.533 584.267C556.667 589.467 557.867 593.6 558.4 622.667C558.933 649.733 558.533 651.333 551.333 652.8C548.4 653.333 546.267 652.8 544 650.933C540.8 648.267 540.667 647.733 540 624.933C539.467 604.4 539.067 601.2 536.8 598.8C533.6 595.333 523.467 594.933 518.933 598.133C513.067 602.267 512 606.533 512 627.733C512 649.333 511.333 651.467 504.667 652.8C501.733 653.333 499.6 652.8 497.333 650.933L494 648.267V602.267C494 565.333 494.4 556 495.867 554.267C498.267 551.333 506.4 551.333 509.6 554.267ZM196.4 583.2C199.2 584.267 202.533 586 203.867 587.333C206.133 589.333 206.667 589.2 211.2 586.133C224.267 577.333 242.133 581.6 250.8 595.6C253.867 600.4 254 601.733 254 624.533V648.4L250.267 651.2C246.8 653.733 246.267 653.733 242.933 651.867L239.333 649.867L238.667 626.8L238 603.733L234.267 600.533C229.067 596.133 223.467 596.4 218.533 601.2L214.667 605.067V626.533C214.667 646.267 214.4 648.267 212 650.667C210.533 652.133 208.133 653.333 206.667 653.333C205.2 653.333 202.8 652.133 201.333 650.667C198.933 648.267 198.667 646.267 198.667 626.533V605.067L194.8 601.2C188.667 595.067 180.667 596.267 176.667 604C175.2 606.933 174.667 612.667 174.667 628.533C174.667 649.067 174.667 649.333 171.333 651.467C167.467 654 163.333 652.933 160.533 648.667C158.8 646 158.533 641.733 158.933 623.733C159.333 604.4 159.733 601.333 162.4 596.4C168.933 584 183.2 578.533 196.4 583.2ZM311.867 582.667C322.933 585.733 330.267 594.267 332.8 606.933C334.533 614.933 334.133 618.533 331.467 620.267C330.667 620.8 319.867 621.333 307.467 621.333H285.067L285.867 625.6C287.733 634.8 299.333 641.2 310.4 639.2C313.2 638.667 318.133 637.2 321.6 635.867C327.6 633.467 328 633.467 330.8 635.867C333.067 637.6 333.467 639.067 332.933 641.6C331.733 646.133 327.2 648.933 317.067 651.467C294.933 657.2 274.133 647.333 269.2 628.8C266.8 619.867 268.267 605.333 272.533 598.133C280.4 584.667 296.667 578.267 311.867 582.667ZM396.133 585.467C404.133 590 409.2 597.6 410.933 608.267C413.333 621.6 413.733 621.333 385.733 621.333H362.4L363.2 624.933C364.533 630.133 368.267 634.933 372.8 637.333C378.133 640 390 639.6 398 636.4C406 633.333 409.067 633.733 410.133 638.267C411.333 643.067 409.6 645.467 401.867 649.333C392.933 653.867 374.533 654.133 365.333 649.867C351.733 643.6 346 634 346 617.333C346 607.333 346.4 605.2 349.867 598.933C356.667 586.667 367.467 580.933 382.267 581.867C387.6 582.133 392.4 583.467 396.133 585.467ZM471.467 585.467C477.067 588.133 478 589.2 478 592.533C478 598.4 474.8 599.6 466.267 596.933C456.267 593.733 446.667 594 442.933 597.333C436 603.733 440.8 608.667 456.533 611.6C469.867 614 475.6 617.333 479.2 624.4C483.467 633.333 479.067 644.267 469.067 649.6C464.4 652 461.2 652.533 451.333 652.533C432.8 652.667 422.667 648.4 422.667 640.667C422.667 635.2 426.933 634.133 435.467 637.2C444.267 640.533 456.8 640.933 461.067 637.867C464.667 635.333 465.067 628.667 461.733 626.8C460.4 626.133 454.267 624.533 448 623.333C434.267 620.533 430 618.533 426.667 612.933C421.6 604.667 424.4 592.667 432.667 587.2C443.067 580.4 459.733 579.6 471.467 585.467ZM620.133 583.333C628.8 586.4 634.133 591.2 638.133 599.467C642.933 609.2 643.333 624 639.067 633.333C633.333 646.4 618.133 654.533 603.067 652.8C588.933 651.2 580.667 645.6 575.2 634C569.867 622.667 571.467 602.133 578.4 594C582.267 589.467 589.733 584.267 594.667 582.933C601.733 580.933 613.6 581.067 620.133 583.333Z" fill="#580A46"/>
<path d="M298.667 594.267C293.467 595.867 290.4 598.134 288 602.134C282.8 610.267 283.467 610.667 302 610.667C320.533 610.667 320.667 610.534 316.533 602C313.6 595.6 305.2 592 298.667 594.267Z" fill="#580A46"/>
<path d="M373.467 595.734C368.667 598.134 364.8 602.667 363.333 607.6C362.533 610.667 362.533 610.667 379.2 610.667C395.2 610.667 396 610.534 396 608C396 603.067 392 597.2 387.333 595.2C381.333 592.8 378.933 592.8 373.467 595.734Z" fill="#580A46"/>
<path d="M600.533 596C588.533 600.8 585.733 624.667 596 634.933C600.933 639.867 610.933 640.267 616.667 635.733C627.6 627.067 626 601.6 614.133 596.667C608.933 594.4 604.8 594.267 600.533 596Z" fill="#580A46"/>
</g>
<defs>
<clipPath id="clip0_209_1608">
<rect width="800" height="800" fill="white"/>
</clipPath>
</defs>
</svg>
