<svg width="522" height="301" viewBox="0 0 522 301" fill="none" xmlns="http://www.w3.org/2000/svg">
<path d="M279.333 0.764833C252 2.09817 240.933 4.09817 232.933 9.4315C222.4 16.3648 216.133 29.8315 213.333 51.6982C209.467 82.4982 210.533 155.698 215.333 176.232C220.667 199.032 231.867 209.298 255.067 212.498C272 214.898 357.867 216.898 399.333 216.098C456.933 214.765 482.8 213.032 490.8 209.965C515.2 200.765 521.333 180.232 521.333 107.565C521.333 47.4315 516.8 24.3648 502.533 12.0982C495.467 6.09817 486.8 3.29817 470.8 1.8315C452.4 0.0981658 309.333 -0.701834 279.333 0.764833ZM302.667 45.2982V55.2982H290.667H278.667V115.298V175.432L268.4 175.032L258 174.632L257.6 114.898L257.333 55.2982H246.667H236V45.2982V35.2982H269.333H302.667V45.2982ZM388 57.2982V79.2982L394 74.6315C407.467 64.4982 419.733 67.8315 424.133 83.0315C426.667 91.6982 426.8 157.698 424.267 164.765C421.733 171.965 417.2 175.565 409.733 176.232C404.133 176.765 402.533 176.365 396.4 172.232L389.333 167.432V171.432V175.298H379.333H369.333V105.298V35.2982H378.667H388V57.2982ZM475.6 70.2315C484 72.2315 491.2 79.6982 493.867 88.7648C495.333 93.2982 496 101.165 496 110.898V125.965H477.333H458.667V139.298C458.667 151.832 458.933 153.032 462 155.965C465.733 159.832 467.6 160.098 471.6 157.298C473.867 155.698 474.667 153.298 475.333 146.632L476.267 137.965H486.267H496.4L495.733 147.965C495.2 155.965 494.267 159.165 491.2 164.232C481.6 179.698 458.267 181.165 445.733 166.898C439.067 159.298 438.4 155.298 438.933 120.632C439.333 91.9648 439.6 88.8982 442.133 84.0982C448.533 71.6982 461.067 66.4982 475.6 70.2315ZM318.667 113.165C318.667 149.032 318.933 156.632 320.533 157.832C322.8 159.832 325.867 158.498 330.267 153.698C333.2 150.498 333.333 149.832 333.6 110.632L334 70.6315H344H354L354.4 123.032L354.667 175.432L344.4 175.032L334 174.632L333.333 170.098L332.667 165.698L330 168.632C323.467 175.832 311.6 178.765 305.467 174.498C299.067 169.965 298.667 166.765 298.667 116.632V69.9648H308.667H318.667V113.165Z" fill="#DA2B27"/>
<path d="M390.933 89.9642C388.133 92.6309 388 93.5642 388 123.431V153.964L392.4 156.631C397.733 159.964 399.333 159.964 402.667 156.631C405.2 154.098 405.333 152.231 405.333 123.164C405.333 104.498 404.8 91.4309 404 89.8309C402.133 86.3642 394.8 86.4975 390.933 89.9642Z" fill="#DA2B27"/>
<path d="M461.333 88.6315C460 89.4315 459.2 92.8982 458.933 99.8315L458.4 109.965H467.333H476.4L475.333 100.232C474.933 95.0315 473.867 89.8315 473.067 88.8982C471.467 87.0315 464.267 86.7648 461.333 88.6315Z" fill="#DA2B27"/>
<path d="M0 34.4978C0 34.7645 2.66667 43.2978 5.86667 53.5645C9.2 63.6978 15.2 83.0312 19.3333 96.6312L26.9333 121.298L26 145.431C25.4667 158.765 25.4667 170.898 26 172.498C26.8 175.031 27.8667 175.298 36.8 175.298H46.6667V147.031V118.765L59.4667 78.0978C66.5333 55.5645 72.2667 36.6312 72.4 35.9645C72.5333 35.1645 68.1333 34.4978 61.8667 34.2312L51.0667 33.8312L44.8 57.5645C41.3333 70.6312 38 82.7645 37.4667 84.6312C36.1333 88.6312 36.8 90.3645 29.3333 61.4312C21.4667 31.1645 23.3333 33.9645 10.6667 33.9645C4.8 33.9645 0 34.2312 0 34.4978Z" fill="black"/>
<path d="M86.0002 70.7643C79.4668 73.031 72.9335 80.0976 70.9335 87.031C69.8668 90.3643 69.3335 103.698 69.3335 124.231C69.3335 155.164 69.4668 156.364 72.4002 162.098C82.8002 181.831 111.067 181.431 121.733 161.431C124.533 156.231 124.667 154.364 124.667 123.964C124.667 96.4976 124.267 91.031 122.267 85.831C116.933 71.831 101.333 65.2976 86.0002 70.7643ZM103.6 91.2976C104.8 93.6976 105.333 103.031 105.333 123.431C105.333 150.631 105.2 152.498 102.533 155.831C99.2002 159.964 94.6668 160.364 91.2002 156.498C88.9335 153.964 88.6668 151.031 88.2668 126.764C87.8668 97.9643 88.2668 92.4976 91.6002 89.2976C94.8002 86.0976 101.6 87.1643 103.6 91.2976Z" fill="black"/>
<path d="M140 117.431C140 169.031 140.4 171.831 147.467 175.165C154.533 178.365 161.067 176.498 169.2 169.165L174.667 164.365V169.831V175.298H184.667H194.667V122.631V69.9645H184.667H174.667V110.498V151.031L170 155.165C164.667 159.831 162 160.365 160.267 156.898C159.6 155.698 159.2 135.565 159.333 112.231L159.6 69.9645H149.867H140V117.431Z" fill="black"/>
<path d="M31.9999 222.098C26.9332 233.831 9.73319 281.431 10.2665 282.365C11.4665 284.365 14.2665 280.765 15.8665 275.031C18.5332 266.098 18.7999 265.965 34.7999 265.965C48.5332 265.965 49.1999 266.098 50.1332 268.898C52.6665 277.031 56.1332 283.698 57.3332 282.498C58.5332 281.298 37.3332 222.765 34.7999 220.231C33.8665 219.298 32.9332 219.965 31.9999 222.098ZM41.4665 245.298C44.7999 254.498 47.1999 262.231 46.9332 262.631C46.5332 263.031 40.6665 263.298 33.7332 263.298C24.6665 263.298 21.3332 262.898 21.3332 261.565C21.3332 260.231 24.7999 250.765 31.8665 232.231C32.6665 230.231 33.7332 228.631 34.2665 228.631C34.9332 228.631 38.1332 236.231 41.4665 245.298Z" fill="black"/>
<path d="M108.933 220.231C108.4 220.631 108 227.031 108 234.498V247.831L105.2 244.765C101.6 240.898 97.2 239.298 90.2667 239.298C76.5333 239.298 66.5333 253.831 70.6667 267.698C74.9333 281.965 92.8 287.831 103.867 278.631C108.667 274.498 108.8 274.498 108.667 278.898C108.667 280.765 109.467 282.631 110.4 282.898C111.6 283.431 112 276.498 112 251.431C112 222.098 111.6 217.565 108.933 220.231ZM98.1333 244.498C102.267 246.365 104.4 248.498 106.533 253.031C110.533 261.165 109.333 267.565 102.667 274.231C98.4 278.498 96.8 279.298 92.1333 279.298C84.9333 279.298 79.2 276.365 76 270.898C69.8667 260.765 75.0667 246.631 86.1333 243.298C91.6 241.698 92.1333 241.698 98.1333 244.498Z" fill="black"/>
<path d="M287.467 220.231C287.067 220.631 286.667 225.165 286.667 230.231V239.298H282.667C280.533 239.298 278.667 239.831 278.667 240.631C278.667 241.298 280.533 241.965 282.667 241.965H286.667V260.365C286.667 277.031 286.933 279.165 289.333 281.298C290.933 282.765 292.8 283.298 294.267 282.631C296.533 281.831 296.4 281.565 293.733 279.698C290.8 277.698 290.667 276.765 290.667 259.831V241.965H294.667C296.933 241.965 298.667 241.298 298.667 240.631C298.667 239.831 296.933 239.298 294.667 239.298H290.667V230.098C290.667 221.431 289.6 218.098 287.467 220.231Z" fill="black"/>
<path d="M320.667 225.965C319.734 227.565 320.934 229.965 322.8 229.965C323.467 229.965 324 228.765 324 227.298C324 224.498 322 223.698 320.667 225.965Z" fill="black"/>
<path d="M392 227.298C392 229.031 392.667 229.964 393.733 229.564C394.533 229.298 395.333 228.231 395.333 227.298C395.333 226.364 394.533 225.298 393.733 224.898C392.667 224.631 392 225.564 392 227.298Z" fill="black"/>
<path d="M130.267 240.232C129.333 241.965 147.2 283.298 148.533 282.898C150 282.365 166.667 243.832 166.667 241.032C166.667 235.965 163.6 241.165 156.667 257.298C152.533 267.165 148.533 275.298 148 275.298C147.467 275.298 146.667 274.232 146.267 272.765C145.067 267.832 132.667 239.298 131.733 239.298C131.2 239.298 130.533 239.698 130.267 240.232Z" fill="black"/>
<path d="M196.533 240.631C192.8 242.098 185.6 250.631 184.533 254.765C184 256.631 184 260.898 184.4 264.231C186 279.031 201.333 287.431 214.4 280.765C220.667 277.565 224.667 272.765 222.667 270.765C221.867 269.965 220.4 270.765 218.8 272.898C212.267 281.031 199.6 281.298 192.4 273.431C189.867 270.765 188 267.298 188 265.298V262.098L207.067 261.698L226 261.298L225.6 256.765C225.2 251.298 220.133 244.098 214.667 241.298C210.533 239.165 201.067 238.765 196.533 240.631ZM211.067 243.831C215.867 245.698 222.667 253.031 222.667 256.098C222.667 257.565 219.467 257.965 205.333 257.965C194.133 257.965 188 257.431 188 256.631C188 253.831 191.867 247.698 194.933 245.698C200.8 241.831 205.2 241.298 211.067 243.831Z" fill="black"/>
<path d="M243.733 254.231C243.2 273.298 243.733 283.298 245.466 283.298C246.133 283.298 246.666 278.231 246.666 271.965C246.666 259.698 248.266 254.898 254.4 248.231C256.266 246.231 260.133 243.965 262.933 243.165C268.666 241.698 269.733 239.298 264.666 239.298C260.133 239.298 254.133 242.498 250.933 246.631C247.333 251.165 246.666 250.898 246.666 244.631C246.666 241.698 246.133 239.298 245.466 239.298C244.666 239.298 244 246.098 243.733 254.231Z" fill="black"/>
<path d="M320.533 241.032C320.267 241.965 320.133 251.698 320.267 262.632C320.533 277.032 321.067 282.498 322.4 283.032C323.6 283.432 324 278.498 324 261.432C324 247.165 323.467 239.298 322.667 239.298C321.867 239.298 320.933 240.098 320.533 241.032Z" fill="black"/>
<path d="M351.2 240.631C347.733 241.964 344 247.031 344 250.098C344 254.631 349.2 259.031 356.667 260.764C371.333 263.964 376.133 270.498 368.533 276.498C363.867 280.231 355.867 280.098 349.2 276.364C343.333 273.031 340.4 274.231 345.067 278.098C353.2 284.631 365.6 284.498 372.267 277.964C376.933 273.298 377.067 268.231 372.8 263.964C370 261.164 366.8 259.964 355.733 257.431C348.533 255.831 345.733 249.698 350.4 245.564C355.467 241.031 361.467 241.431 372.4 247.031C372.933 247.298 373.333 246.631 373.333 245.564C373.333 241.031 358.533 237.698 351.2 240.631Z" fill="black"/>
<path d="M392 261.298C392 278.498 392.4 283.432 393.733 282.898C394.933 282.498 395.333 277.032 395.333 261.298C395.333 245.565 394.933 240.098 393.733 239.565C392.4 239.165 392 244.098 392 261.298Z" fill="black"/>
<path d="M417.6 260.898C418.133 286.631 420.267 290.365 421.333 267.165C422.133 249.698 423.867 245.565 431.2 243.565C437.2 241.831 441.867 242.898 445.6 246.898C448.4 249.831 448.667 251.698 449.333 266.231C449.733 277.565 450.533 282.631 451.733 283.031C454.267 283.831 454 253.698 451.333 248.498C446.8 239.831 434.267 236.631 425.733 241.965C421.333 244.631 421.333 244.631 421.333 241.965C421.333 240.498 420.4 239.298 419.333 239.298C417.6 239.298 417.333 242.231 417.6 260.898Z" fill="black"/>
<path d="M481.2 242.365C475.333 246.231 472 253.031 472 261.031C472 277.298 486.8 287.431 500.667 280.631C504 279.031 506.667 277.165 506.667 276.498C506.667 275.831 507.333 275.298 508.133 275.298C509.2 275.298 509.467 277.431 508.933 281.565C508.4 286.631 507.333 288.765 503.333 292.365C498.8 296.498 497.867 296.898 490.667 296.365C481.867 295.965 479.2 297.165 484.533 299.298C493.733 302.765 503.467 299.565 509.867 290.898C512.4 287.431 512.667 285.031 513.067 263.165C513.467 242.098 513.333 239.298 511.467 239.298C510 239.298 509.333 240.498 509.333 243.565V247.698L506.4 245.031C498.933 238.365 488.8 237.298 481.2 242.365ZM503.867 247.965C515.2 259.165 507.6 279.298 492 279.298C478.133 279.298 469.867 261.698 478.267 250.098C484.933 241.031 496 240.098 503.867 247.965Z" fill="black"/>
</svg>
